<?xml version="1.0" encoding="UTF-8"?>
<svg id="Layer_2" data-name="Layer 2" xmlns="http://www.w3.org/2000/svg" xmlns:xlink="http://www.w3.org/1999/xlink" viewBox="0 0 184.93 167.17">
  <defs>
    <style>
      .cls-1, .cls-2 {
        fill: none;
      }

      .cls-2 {
        stroke: #b7b7b7;
        stroke-miterlimit: 10;
        stroke-width: 1.39px;
      }

      .cls-3 {
        fill: #c84333;
      }

      .cls-4 {
        fill: #fff;
      }

      .cls-5 {
        fill: #2c3684;
      }

      .cls-6 {
        clip-path: url(#clippath);
      }
    </style>
    <clipPath id="clippath">
      <rect class="cls-1" x="27.24" y="21.66" width="130.46" height="130.46" rx="30.31" ry="30.31"/>
    </clipPath>
  </defs>
  <g id="Layer_1-2" data-name="Layer 1">
    <g class="cls-6">
      <path class="cls-5" d="M32.91,18.59h116.48c19.62,0,35.54,15.93,35.54,35.54v77.49c0,19.62-15.93,35.54-35.54,35.54H0V51.51C0,33.34,14.75,18.59,32.91,18.59Z"/>
      <path class="cls-3" d="M30.7,0h123.97c16.65,0,30.17,13.52,30.17,30.17v61.54H.09V30.61C.09,13.72,13.81,0,30.7,0Z"/>
      <g>
        <circle class="cls-4" cx="92.47" cy="92.88" r="18.34"/>
        <g>
          <path class="cls-2" d="M107.23,92.88c0,3.7-1.35,7.08-3.59,9.67-2.72,3.17-6.76,5.18-11.27,5.18s-8.55-2-11.27-5.18c-2.24-2.6-3.59-5.98-3.59-9.67,0-4.06,1.63-7.75,4.27-10.43,2.69-2.73,6.44-4.43,10.58-4.43s7.89,1.7,10.59,4.43c2.64,2.68,4.27,6.37,4.27,10.43Z"/>
          <path class="cls-2" d="M102.96,82.45c-1.37.69-2.86,1.25-4.44,1.65-1.93.5-4,.77-6.15.77s-4.21-.27-6.14-.76c-1.58-.4-3.07-.97-4.44-1.66,2.69-2.73,6.44-4.43,10.58-4.43s7.89,1.7,10.59,4.43Z"/>
          <path class="cls-2" d="M103.65,102.56c-2.72,3.17-6.76,5.18-11.27,5.18s-8.55-2-11.27-5.18c1.46-.8,3.07-1.46,4.78-1.92,2.02-.55,4.21-.85,6.48-.85s4.46.31,6.49.85c1.72.47,3.33,1.12,4.78,1.92Z"/>
          <ellipse class="cls-2" cx="92.37" cy="92.88" rx="7.61" ry="14.86"/>
          <polyline class="cls-2" points="77.52 92.88 84.76 92.88 92.37 92.88 99.99 92.88 107.23 92.88"/>
          <polyline class="cls-2" points="92.37 107.73 92.37 99.78 92.37 92.88 92.37 84.88 92.37 78.02"/>
        </g>
      </g>
    </g>
  </g>
</svg>