<?xml version="1.0" encoding="UTF-8"?>
<svg id="Layer_2" data-name="Layer 2" xmlns="http://www.w3.org/2000/svg" xmlns:xlink="http://www.w3.org/1999/xlink" viewBox="0 0 184.93 167.17">
  <defs>
    <style>
      .cls-1, .cls-2 {
        fill: none;
      }

      .cls-2 {
        stroke: #b7b7b7;
        stroke-miterlimit: 10;
        stroke-width: 1.39px;
      }

      .cls-3 {
        fill: #c84333;
      }

      .cls-4 {
        fill: #fff;
      }

      .cls-5 {
        fill: #2c3684;
      }

      .cls-6 {
        clip-path: url(#clippath);
      }
    </style>
    <clipPath id="clippath">
      <rect class="cls-1" x="27.24" y="22.66" width="130.46" height="130.46"/>
    </clipPath>
  </defs>
  <g id="Layer_1-2" data-name="Layer 1">
    <g class="cls-6">
      <path class="cls-5" d="M32.91,18.59h116.48c19.62,0,35.54,15.93,35.54,35.54v77.49c0,19.62-15.93,35.54-35.54,35.54H0V51.51C0,33.34,14.75,18.59,32.91,18.59Z"/>
      <path class="cls-3" d="M30.7,0h123.97c16.65,0,30.17,13.52,30.17,30.17v61.54H.09V30.61C.09,13.72,13.81,0,30.7,0Z"/>
      <g>
        <path class="cls-4" d="M69.51,37.54c2.36,0,4.45.42,6.28,1.27,1.83.85,3.37,2.01,4.63,3.49,1.25,1.48,2.21,3.21,2.86,5.17s.98,4.07.98,6.31-.33,4.35-.98,6.33c-.65,1.98-1.6,3.71-2.86,5.17-1.25,1.47-2.8,2.62-4.63,3.47-1.83.85-3.92,1.27-6.28,1.27s-4.45-.42-6.26-1.27c-1.81-.85-3.35-2-4.61-3.47-1.25-1.47-2.21-3.19-2.86-5.17-.65-1.98-.98-4.09-.98-6.33s.32-4.35.98-6.33c.65-1.98,1.6-3.7,2.86-5.17,1.25-1.47,2.79-2.62,4.61-3.47,1.81-.85,3.9-1.27,6.26-1.27ZM69.51,60.95c.91,0,1.69-.19,2.36-.57.67-.38,1.22-.89,1.66-1.54.44-.65.75-1.41.95-2.27.2-.86.29-1.79.29-2.79s-.1-1.93-.29-2.79c-.2-.86-.51-1.62-.95-2.27-.44-.65-.99-1.16-1.66-1.54-.67-.38-1.45-.57-2.36-.57s-1.69.19-2.36.57-1.21.89-1.63,1.54c-.42.65-.74,1.41-.95,2.27-.21.86-.32,1.79-.32,2.79s.11,1.93.32,2.79c.21.86.53,1.62.95,2.27.42.65.97,1.17,1.63,1.54.67.38,1.45.57,2.36.57Z"/>
        <path class="cls-4" d="M101.36,37.95c2,0,3.66.51,4.99,1.52,1.33,1.01,2.33,2.28,2.99,3.79.67,1.51,1,3.15,1,4.92s-.33,3.41-1,4.92c-.67,1.51-1.66,2.78-2.99,3.79-1.33,1.01-2.99,1.52-4.99,1.52h-5.9v11.3h-9.44v-31.76h15.33ZM98.5,50.79c.85,0,1.48-.29,1.91-.88.42-.59.63-1.23.63-1.93s-.21-1.34-.63-1.93c-.42-.59-1.06-.88-1.91-.88h-3.04v5.63h3.04Z"/>
        <path class="cls-4" d="M120.64,47.12c0,.45.26.93.79,1.43.53.5,1.19,1.04,1.97,1.61.79.57,1.64,1.2,2.56,1.88.92.68,1.78,1.44,2.56,2.27.79.83,1.44,1.75,1.97,2.77s.79,2.12.79,3.33c0,1.27-.2,2.49-.61,3.65-.41,1.17-1.06,2.19-1.95,3.08s-2.04,1.6-3.43,2.11c-1.39.51-3.07.77-5.04.77-1.66,0-3.15-.12-4.45-.36-1.3-.24-2.4-.51-3.29-.79-.89-.29-1.58-.56-2.06-.82-.48-.26-.76-.4-.82-.43l2.59-8.48c.24.18.58.42,1.02.7.44.29.95.56,1.54.82s1.25.48,1.97.68c.73.2,1.5.29,2.31.29,1,0,1.7-.19,2.11-.57s.61-.78.61-1.2c0-.61-.27-1.17-.79-1.7-.53-.53-1.19-1.07-1.97-1.63-.79-.56-1.65-1.16-2.59-1.79-.94-.63-1.8-1.35-2.59-2.16-.79-.8-1.45-1.7-1.97-2.7-.53-1-.79-2.15-.79-3.45,0-2.75.94-4.92,2.81-6.51,1.88-1.59,4.55-2.38,8.03-2.38,1.36,0,2.59.1,3.7.29,1.1.2,2.05.42,2.83.66.94.3,1.78.63,2.54,1l-2,7.94c-.64-.3-1.3-.57-2-.82-.6-.18-1.28-.36-2.02-.52s-1.5-.25-2.29-.25c-.85,0-1.41.15-1.68.45-.27.3-.41.58-.41.82Z"/>
      </g>
      <g>
        <path class="cls-4" d="M57.69,132.89v-18.36h2.1c2.86,4.41,9.57,14.66,10.73,16.66h.03c-.16-2.65-.13-5.35-.13-8.34v-8.32h1.44v18.36h-1.94c-2.73-4.25-9.55-14.92-10.86-16.94h-.03c.13,2.41.1,5.09.1,8.42v8.52h-1.44Z"/>
        <path class="cls-4" d="M88.03,123.86h-9.36v7.71h10.26l-.21,1.31h-11.46v-18.36h11.25v1.31h-9.84v6.71h9.36v1.31Z"/>
        <path class="cls-4" d="M95.93,132.89l-5.09-18.36h1.47c1.23,4.41,4.01,14.56,4.43,16.71h.03c.34-1.71,3.36-11.86,4.64-16.71h1.57c1.21,4.49,4.14,15.27,4.43,16.68h.03c.58-2.6,3.65-12.3,4.91-16.68h1.44l-5.61,18.36h-1.63c-1.21-4.33-4.07-14.95-4.38-16.52h-.03c-.47,2.39-3.31,11.96-4.62,16.52h-1.6Z"/>
        <path class="cls-4" d="M117.12,127.96c.55,2.44,2.18,3.88,5.19,3.88,3.36,0,4.64-1.68,4.64-3.67s-.92-3.36-4.96-4.35c-3.88-.97-5.56-2.23-5.56-4.88,0-2.41,1.76-4.67,5.69-4.67s5.74,2.47,5.98,4.7h-1.47c-.42-1.97-1.7-3.38-4.59-3.38-2.65,0-4.09,1.23-4.09,3.28s1.21,2.81,4.59,3.65c5.17,1.29,5.93,3.36,5.93,5.56,0,2.7-1.97,5.04-6.22,5.04-4.59,0-6.27-2.68-6.61-5.14h1.47Z"/>
      </g>
      <g>
        <circle class="cls-4" cx="92.47" cy="92.88" r="18.34"/>
        <g>
          <path class="cls-2" d="M107.23,92.88c0,3.7-1.35,7.08-3.59,9.67-2.72,3.17-6.76,5.18-11.27,5.18s-8.55-2-11.27-5.18c-2.24-2.6-3.59-5.98-3.59-9.67,0-4.06,1.63-7.75,4.27-10.43,2.69-2.73,6.44-4.43,10.58-4.43s7.89,1.7,10.59,4.43c2.64,2.68,4.27,6.37,4.27,10.43Z"/>
          <path class="cls-2" d="M102.96,82.45c-1.37.69-2.86,1.25-4.44,1.65-1.93.5-4,.77-6.15.77s-4.21-.27-6.14-.76c-1.58-.4-3.07-.97-4.44-1.66,2.69-2.73,6.44-4.43,10.58-4.43s7.89,1.7,10.59,4.43Z"/>
          <path class="cls-2" d="M103.65,102.56c-2.72,3.17-6.76,5.18-11.27,5.18s-8.55-2-11.27-5.18c1.46-.8,3.07-1.46,4.78-1.92,2.02-.55,4.21-.85,6.48-.85s4.46.31,6.49.85c1.72.47,3.33,1.12,4.78,1.92Z"/>
          <ellipse class="cls-2" cx="92.37" cy="92.88" rx="7.61" ry="14.86"/>
          <polyline class="cls-2" points="77.52 92.88 84.76 92.88 92.37 92.88 99.99 92.88 107.23 92.88"/>
          <polyline class="cls-2" points="92.37 107.73 92.37 99.78 92.37 92.88 92.37 84.88 92.37 78.02"/>
        </g>
      </g>
    </g>
  </g>
</svg>