<?xml version="1.0" encoding="UTF-8"?>
<svg id="Layer_2" data-name="Layer 2" xmlns="http://www.w3.org/2000/svg" viewBox="0 0 232.53 47.89">
  <defs>
    <style>
      .cls-1, .cls-2 {
        fill: none;
      }

      .cls-2 {
        stroke: #fff;
        stroke-miterlimit: 10;
        stroke-width: .75px;
      }

      .cls-3 {
        font-family: AcuminVariableConcept, 'Acumin Variable Concept';
        font-size: 34.42px;
        font-variation-settings: 'wght' 194, 'wdth' 100, 'slnt' 0;
      }

      .cls-3, .cls-4 {
        fill: #2c3684;
      }

      .cls-5 {
        letter-spacing: -.06em;
      }

      .cls-6 {
        letter-spacing: -.04em;
      }

      .cls-7 {
        fill: #c84333;
        font-family: Submica-Regular, Submica;
        font-size: 45.37px;
      }

      .cls-8 {
        letter-spacing: 0em;
      }

      .cls-9 {
        letter-spacing: 0em;
      }
    </style>
  </defs>
  <g id="Layer_1-2" data-name="Layer 1">
    <g>
      <rect class="cls-1" width="232.53" height="45.17"/>
      <text class="cls-7" transform="translate(10.31 38.73)"><tspan class="cls-6" x="0" y="0">O</tspan><tspan class="cls-5" x="30.31" y="0">PS</tspan></text>
      <text class="cls-3" transform="translate(122.73 35.17)"><tspan class="cls-8" x="0" y="0">N</tspan><tspan class="cls-9" x="25.68" y="0">E</tspan><tspan x="45.99" y="0">WS</tspan></text>
      <g>
        <circle class="cls-4" cx="105.13" cy="24.03" r="15.15"/>
        <g>
          <path class="cls-2" d="M117.33,24.03c0,3.05-1.11,5.85-2.96,7.99-2.25,2.62-5.59,4.28-9.32,4.28s-7.07-1.66-9.31-4.28c-1.85-2.15-2.96-4.94-2.96-7.99,0-3.36,1.34-6.4,3.53-8.62,2.22-2.26,5.32-3.66,8.74-3.66s6.52,1.4,8.75,3.66c2.18,2.21,3.53,5.26,3.53,8.62Z"/>
          <path class="cls-2" d="M113.8,15.42c-1.13.57-2.36,1.03-3.67,1.37-1.6.42-3.31.64-5.08.64s-3.48-.22-5.07-.63c-1.31-.33-2.54-.8-3.67-1.37,2.22-2.26,5.32-3.66,8.74-3.66s6.52,1.4,8.75,3.66Z"/>
          <path class="cls-2" d="M114.37,32.03c-2.25,2.62-5.59,4.28-9.32,4.28s-7.07-1.66-9.31-4.28c1.2-.66,2.53-1.2,3.95-1.59,1.67-.45,3.48-.71,5.36-.71s3.69.25,5.36.71c1.42.39,2.75.93,3.95,1.59Z"/>
          <ellipse class="cls-2" cx="105.05" cy="24.03" rx="6.29" ry="12.28"/>
          <polyline class="cls-2" points="92.77 24.03 98.76 24.03 105.05 24.03 111.34 24.03 117.33 24.03"/>
          <polyline class="cls-2" points="105.05 36.31 105.05 29.73 105.05 24.03 105.05 17.42 105.05 11.75"/>
        </g>
      </g>
    </g>
  </g>
</svg>