<?xml version="1.0" encoding="UTF-8"?>
<svg id="Layer_2" data-name="Layer 2" xmlns="http://www.w3.org/2000/svg" viewBox="0 0 435.09 82.79">
  <defs>
    <style>
      .cls-1 {
        fill: none;
        stroke: #b7b7b7;
        stroke-miterlimit: 10;
        stroke-width: 2px;
      }

      .cls-2 {
        fill: #c84333;
      }

      .cls-3 {
        fill: #fff;
      }

      .cls-4 {
        fill: #2c3684;
      }
    </style>
  </defs>
  <g id="Layer_1-2" data-name="Layer 1">
    <g>
      <path class="cls-4" d="M30.6,0h363.79C416.85,0,435.09,18.23,435.09,40.69v1.4c0,22.46-18.23,40.69-40.69,40.69H30.6C13.71,82.79,0,69.08,0,52.19v-21.59C0,13.71,13.71,0,30.6,0Z"/>
      <path class="cls-2" d="M30.01,0h166.68v82.79H6.54c-3.61,0-6.54-2.93-6.54-6.54V30.01C0,13.45,13.45,0,30.01,0Z"/>
      <g>
        <path class="cls-3" d="M46.05,14.71c4.13,0,7.8.74,11,2.22,3.2,1.48,5.9,3.52,8.1,6.12,2.2,2.59,3.86,5.61,5,9.05,1.14,3.44,1.71,7.12,1.71,11.04s-.57,7.61-1.71,11.08c-1.14,3.47-2.81,6.49-5,9.05-2.2,2.57-4.9,4.59-8.1,6.08-3.2,1.48-6.87,2.22-11,2.22s-7.78-.74-10.96-2.22c-3.18-1.48-5.86-3.51-8.06-6.08-2.2-2.57-3.87-5.59-5-9.05-1.14-3.47-1.71-7.16-1.71-11.08s.57-7.61,1.71-11.08c1.14-3.47,2.81-6.49,5-9.05,2.2-2.57,4.88-4.59,8.06-6.08,3.18-1.48,6.83-2.22,10.96-2.22ZM46.05,55.69c1.59,0,2.96-.33,4.13-.99,1.16-.66,2.13-1.56,2.9-2.7.77-1.14,1.32-2.46,1.67-3.97.34-1.51.52-3.14.52-4.88s-.17-3.38-.52-4.88c-.35-1.51-.9-2.83-1.67-3.97-.77-1.14-1.73-2.04-2.9-2.7-1.17-.66-2.54-.99-4.13-.99s-2.97.33-4.13.99c-1.17.66-2.12,1.56-2.86,2.7-.74,1.14-1.3,2.46-1.67,3.97-.37,1.51-.56,3.14-.56,4.88s.19,3.38.56,4.88c.37,1.51.93,2.83,1.67,3.97.74,1.14,1.69,2.04,2.86,2.7,1.16.66,2.54.99,4.13.99Z"/>
        <path class="cls-3" d="M101.8,15.43c3.49,0,6.41.89,8.74,2.66,2.33,1.77,4.08,3.98,5.24,6.63,1.16,2.65,1.75,5.52,1.75,8.62s-.58,5.97-1.75,8.62c-1.17,2.65-2.91,4.86-5.24,6.63-2.33,1.77-5.24,2.66-8.74,2.66h-10.32v19.78h-16.52V15.43h26.84ZM96.8,37.9c1.48,0,2.59-.52,3.34-1.55.74-1.03,1.11-2.16,1.11-3.38s-.37-2.34-1.11-3.38c-.74-1.03-1.85-1.55-3.34-1.55h-5.32v9.85h5.32Z"/>
        <path class="cls-3" d="M135.55,31.47c0,.79.46,1.63,1.39,2.5.93.87,2.08,1.81,3.45,2.82,1.38,1.01,2.87,2.1,4.49,3.3,1.61,1.19,3.11,2.52,4.49,3.97,1.38,1.46,2.53,3.07,3.45,4.84.93,1.77,1.39,3.72,1.39,5.84,0,2.22-.36,4.36-1.07,6.39-.71,2.04-1.85,3.84-3.42,5.4s-3.56,2.79-6,3.69c-2.44.9-5.37,1.35-8.82,1.35-2.91,0-5.51-.21-7.78-.64-2.28-.42-4.2-.89-5.76-1.39-1.56-.5-2.77-.98-3.61-1.43-.85-.45-1.32-.7-1.43-.75l4.53-14.85c.42.32,1.02.73,1.79,1.23.77.5,1.67.98,2.7,1.43,1.03.45,2.18.85,3.45,1.19,1.27.34,2.62.52,4.05.52,1.75,0,2.98-.33,3.69-.99.71-.66,1.07-1.36,1.07-2.1,0-1.06-.46-2.05-1.39-2.98-.93-.93-2.08-1.88-3.46-2.86-1.38-.98-2.89-2.03-4.53-3.14-1.64-1.11-3.15-2.37-4.53-3.77-1.38-1.4-2.53-2.98-3.45-4.73-.93-1.75-1.39-3.76-1.39-6.04,0-4.82,1.64-8.62,4.92-11.4,3.28-2.78,7.97-4.17,14.06-4.17,2.38,0,4.54.17,6.47.52,1.93.35,3.59.73,4.96,1.15,1.64.53,3.12,1.11,4.45,1.75l-3.49,13.9c-1.11-.53-2.28-1-3.49-1.43-1.06-.32-2.24-.62-3.53-.91-1.3-.29-2.63-.44-4.01-.44-1.48,0-2.46.27-2.94.79-.48.53-.71,1.01-.71,1.43Z"/>
      </g>
      <g>
        <path class="cls-3" d="M229.6,65.25V18.38h5.36c7.3,11.25,24.44,37.43,27.38,42.52h.07c-.4-6.76-.33-13.66-.33-21.29v-21.22h3.68v46.87h-4.96c-6.96-10.85-24.37-38.1-27.72-43.25h-.07c.33,6.16.27,12.99.27,21.49v21.76h-3.68Z"/>
        <path class="cls-3" d="M307.06,42.21h-23.9v19.69h26.18l-.54,3.35h-29.26V18.38h28.72v3.35h-25.11v17.14h23.9v3.35Z"/>
        <path class="cls-3" d="M327.21,65.25l-12.99-46.87h3.75c3.15,11.25,10.24,37.16,11.32,42.65h.07c.87-4.35,8.57-30.26,11.85-42.65h4.02c3.08,11.45,10.58,38.97,11.32,42.58h.07c1.47-6.63,9.31-31.4,12.52-42.58h3.68l-14.33,46.87h-4.15c-3.08-11.05-10.38-38.16-11.18-42.18h-.07c-1.21,6.09-8.44,30.53-11.78,42.18h-4.08Z"/>
        <path class="cls-3" d="M381.31,52.66c1.41,6.23,5.56,9.91,13.26,9.91,8.57,0,11.85-4.29,11.85-9.37s-2.34-8.57-12.65-11.11c-9.91-2.48-14.2-5.69-14.2-12.45,0-6.16,4.49-11.92,14.53-11.92s14.66,6.29,15.27,11.99h-3.75c-1.07-5.02-4.35-8.64-11.72-8.64-6.76,0-10.45,3.15-10.45,8.37s3.08,7.16,11.72,9.31c13.19,3.28,15.13,8.57,15.13,14.19,0,6.9-5.02,12.86-15.87,12.86-11.72,0-16-6.83-16.87-13.12h3.75Z"/>
      </g>
      <circle class="cls-3" cx="196.78" cy="41.39" r="26.42"/>
      <g>
        <path class="cls-1" d="M218.06,41.4c0,5.32-1.94,10.19-5.17,13.94-3.92,4.57-9.74,7.46-16.24,7.46s-12.32-2.89-16.23-7.46c-3.23-3.74-5.17-8.61-5.17-13.94,0-5.86,2.34-11.17,6.15-15.03,3.87-3.94,9.27-6.39,15.25-6.39s11.37,2.45,15.26,6.39c3.81,3.86,6.15,9.17,6.15,15.03Z"/>
        <path class="cls-1" d="M211.91,26.37c-1.97,1-4.12,1.8-6.4,2.38-2.79.73-5.76,1.11-8.86,1.11s-6.06-.39-8.85-1.1c-2.28-.58-4.43-1.4-6.4-2.4,3.87-3.94,9.27-6.39,15.25-6.39s11.37,2.45,15.26,6.39Z"/>
        <path class="cls-1" d="M212.89,55.34c-3.92,4.57-9.74,7.46-16.24,7.46s-12.32-2.89-16.23-7.46c2.1-1.15,4.42-2.1,6.89-2.77,2.91-.79,6.06-1.23,9.34-1.23s6.43.44,9.35,1.23c2.47.67,4.79,1.62,6.89,2.77Z"/>
        <ellipse class="cls-1" cx="196.65" cy="41.39" rx="10.97" ry="21.41"/>
        <polyline class="cls-1" points="175.25 41.4 185.69 41.4 196.65 41.4 207.62 41.4 218.06 41.4"/>
        <polyline class="cls-1" points="196.65 62.8 196.65 51.33 196.65 41.4 196.65 29.87 196.65 19.99"/>
      </g>
    </g>
  </g>
</svg>