<?xml version="1.0" encoding="UTF-8"?>
<svg id="Layer_2" data-name="Layer 2" xmlns="http://www.w3.org/2000/svg" viewBox="0 0 232.53 45.17">
  <defs>
    <style>
      .cls-1, .cls-2 {
        fill: none;
      }

      .cls-3 {
        fill: #c84333;
      }

      .cls-2 {
        stroke: #fff;
        stroke-miterlimit: 10;
        stroke-width: .75px;
      }

      .cls-4 {
        fill: #2c3684;
      }
    </style>
  </defs>
  <g id="Layer_1-2" data-name="Layer 1">
    <g>
      <rect class="cls-1" width="232.53" height="45.17"/>
      <g>
        <path class="cls-3" d="M26.37,6.56c2.36,0,4.45.42,6.28,1.27,1.83.85,3.37,2.01,4.63,3.49,1.25,1.48,2.21,3.21,2.86,5.17s.98,4.07.98,6.31-.33,4.35-.98,6.33c-.65,1.98-1.6,3.71-2.86,5.17-1.25,1.47-2.8,2.62-4.63,3.47-1.83.85-3.92,1.27-6.28,1.27s-4.45-.42-6.26-1.27c-1.81-.85-3.35-2-4.61-3.47-1.25-1.47-2.21-3.19-2.86-5.17-.65-1.98-.98-4.09-.98-6.33s.32-4.35.98-6.33c.65-1.98,1.6-3.7,2.86-5.17,1.25-1.47,2.79-2.62,4.61-3.47,1.81-.85,3.9-1.27,6.26-1.27ZM26.37,29.97c.91,0,1.69-.19,2.36-.57.67-.38,1.22-.89,1.66-1.54.44-.65.75-1.41.95-2.27.2-.86.29-1.79.29-2.79s-.1-1.93-.29-2.79c-.2-.86-.51-1.62-.95-2.27-.44-.65-.99-1.16-1.66-1.54-.67-.38-1.45-.57-2.36-.57s-1.69.19-2.36.57-1.21.89-1.63,1.54c-.42.65-.74,1.41-.95,2.27-.21.86-.32,1.79-.32,2.79s.11,1.93.32,2.79c.21.86.53,1.62.95,2.27.42.65.97,1.17,1.63,1.54.67.38,1.45.57,2.36.57Z"/>
        <path class="cls-3" d="M58.22,6.97c2,0,3.66.51,4.99,1.52,1.33,1.01,2.33,2.28,2.99,3.79.67,1.51,1,3.15,1,4.92s-.33,3.41-1,4.92c-.67,1.51-1.66,2.78-2.99,3.79-1.33,1.01-2.99,1.52-4.99,1.52h-5.9v11.3h-9.44V6.97h15.33ZM55.36,19.81c.85,0,1.48-.29,1.91-.88.42-.59.63-1.23.63-1.93s-.21-1.34-.63-1.93c-.42-.59-1.06-.88-1.91-.88h-3.04v5.63h3.04Z"/>
        <path class="cls-3" d="M77.51,16.14c0,.45.26.93.79,1.43.53.5,1.19,1.04,1.97,1.61.79.57,1.64,1.2,2.56,1.88.92.68,1.78,1.44,2.56,2.27.79.83,1.44,1.75,1.97,2.77s.79,2.12.79,3.33c0,1.27-.2,2.49-.61,3.65-.41,1.17-1.06,2.19-1.95,3.08s-2.04,1.6-3.43,2.11c-1.39.51-3.07.77-5.04.77-1.66,0-3.15-.12-4.45-.36-1.3-.24-2.4-.51-3.29-.79-.89-.29-1.58-.56-2.06-.82-.48-.26-.76-.4-.82-.43l2.59-8.48c.24.18.58.42,1.02.7.44.29.95.56,1.54.82s1.25.48,1.97.68c.73.2,1.5.29,2.31.29,1,0,1.7-.19,2.11-.57s.61-.78.61-1.2c0-.61-.27-1.17-.79-1.7-.53-.53-1.19-1.07-1.97-1.63-.79-.56-1.65-1.16-2.59-1.79-.94-.63-1.8-1.35-2.59-2.16-.79-.8-1.45-1.7-1.97-2.7-.53-1-.79-2.15-.79-3.45,0-2.75.94-4.92,2.81-6.51,1.88-1.59,4.55-2.38,8.03-2.38,1.36,0,2.59.1,3.7.29,1.1.2,2.05.42,2.83.66.94.3,1.78.63,2.54,1l-2,7.94c-.64-.3-1.3-.57-2-.82-.6-.18-1.28-.36-2.02-.52s-1.5-.25-2.29-.25c-.85,0-1.41.15-1.68.45-.27.3-.41.58-.41.82Z"/>
      </g>
      <g>
        <path class="cls-4" d="M126.1,35.17V11.07h2.75c3.75,5.78,12.57,19.24,14.08,21.86h.03c-.21-3.48-.17-7.02-.17-10.95v-10.91h1.89v24.1h-2.55c-3.58-5.58-12.53-19.59-14.25-22.24h-.04c.17,3.17.14,6.68.14,11.05v11.19h-1.89Z"/>
        <path class="cls-4" d="M165.93,23.33h-12.29v10.12h13.46l-.28,1.72h-15.04V11.07h14.77v1.72h-12.91v8.81h12.29v1.72Z"/>
        <path class="cls-4" d="M176.29,35.17l-6.68-24.1h1.93c1.62,5.78,5.27,19.11,5.82,21.93h.03c.45-2.24,4.41-15.56,6.09-21.93h2.07c1.58,5.89,5.44,20.03,5.82,21.89h.03c.76-3.41,4.78-16.14,6.44-21.89h1.89l-7.37,24.1h-2.13c-1.58-5.68-5.34-19.62-5.75-21.69h-.04c-.62,3.13-4.34,15.7-6.06,21.69h-2.1Z"/>
        <path class="cls-4" d="M204.1,28.7c.72,3.2,2.86,5.09,6.82,5.09,4.41,0,6.09-2.2,6.09-4.82s-1.21-4.41-6.51-5.71c-5.09-1.27-7.3-2.93-7.3-6.4,0-3.17,2.31-6.13,7.47-6.13s7.54,3.24,7.85,6.16h-1.93c-.55-2.58-2.24-4.44-6.02-4.44-3.48,0-5.37,1.62-5.37,4.3s1.58,3.68,6.02,4.79c6.78,1.69,7.78,4.41,7.78,7.3,0,3.55-2.58,6.61-8.16,6.61-6.02,0-8.23-3.51-8.67-6.75h1.93Z"/>
      </g>
      <g>
        <circle class="cls-4" cx="105.13" cy="24.03" r="15.15"/>
        <g>
          <path class="cls-2" d="M117.33,24.03c0,3.05-1.11,5.85-2.96,7.99-2.25,2.62-5.59,4.28-9.32,4.28s-7.07-1.66-9.31-4.28c-1.85-2.15-2.96-4.94-2.96-7.99,0-3.36,1.34-6.4,3.53-8.62,2.22-2.26,5.32-3.66,8.74-3.66s6.52,1.4,8.75,3.66c2.18,2.21,3.53,5.26,3.53,8.62Z"/>
          <path class="cls-2" d="M113.8,15.42c-1.13.57-2.36,1.03-3.67,1.37-1.6.42-3.31.64-5.08.64s-3.48-.22-5.07-.63c-1.31-.33-2.54-.8-3.67-1.37,2.22-2.26,5.32-3.66,8.74-3.66s6.52,1.4,8.75,3.66Z"/>
          <path class="cls-2" d="M114.37,32.03c-2.25,2.62-5.59,4.28-9.32,4.28s-7.07-1.66-9.31-4.28c1.2-.66,2.53-1.2,3.95-1.59,1.67-.45,3.48-.71,5.36-.71s3.69.25,5.36.71c1.42.39,2.75.93,3.95,1.59Z"/>
          <ellipse class="cls-2" cx="105.05" cy="24.03" rx="6.29" ry="12.28"/>
          <polyline class="cls-2" points="92.77 24.03 98.76 24.03 105.05 24.03 111.34 24.03 117.33 24.03"/>
          <polyline class="cls-2" points="105.05 36.31 105.05 29.73 105.05 24.03 105.05 17.42 105.05 11.75"/>
        </g>
      </g>
    </g>
  </g>
</svg>