<?xml version="1.0" encoding="UTF-8"?>
<svg id="Layer_2" data-name="Layer 2" xmlns="http://www.w3.org/2000/svg" viewBox="0 0 437.09 84.79">
  <defs>
    <style>
      .cls-1 {
        fill: #c84333;
      }

      .cls-2 {
        fill: #b7b7b7;
      }

      .cls-3 {
        fill: #fff;
      }

      .cls-4 {
        fill: none;
        stroke: #fff;
        stroke-miterlimit: 10;
        stroke-width: 2px;
      }
    </style>
  </defs>
  <g id="Layer_1-2" data-name="Layer 1">
    <g>
      <path class="cls-4" d="M436.09,41.7v1.4c0,22.47-18.22,40.69-40.7,40.69H7.54c-3.61,0-6.54-2.93-6.54-6.54V31.6c0-.26,0-.53,0-.79C1.42,14.54,14.54,1.42,30.81,1.01c.26-.01.53-.01.79-.01h363.79c22.48,0,40.7,18.22,40.7,40.7Z"/>
      <path class="cls-1" d="M1.01,30.81c0,.26,0,.53,0,.79v-.59c0-.07,0-.13,0-.2Z"/>
      <path class="cls-1" d="M30.81,1.01C14.54,1.42,1.42,14.54,1.01,30.81,1.11,14.4,14.39,1.11,30.81,1.01Z"/>
      <path class="cls-1" d="M31.6,1c-.26,0-.53,0-.79.01.07-.01.13-.01.2-.01h.59Z"/>
      <g>
        <path class="cls-3" d="M47.05,15.71c4.13,0,7.8.74,11,2.22,3.2,1.48,5.9,3.52,8.1,6.12,2.2,2.59,3.86,5.61,5,9.05,1.14,3.44,1.71,7.12,1.71,11.04s-.57,7.61-1.71,11.08c-1.14,3.47-2.81,6.49-5,9.05-2.2,2.57-4.9,4.59-8.1,6.08-3.2,1.48-6.87,2.22-11,2.22s-7.78-.74-10.96-2.22c-3.18-1.48-5.86-3.51-8.06-6.08-2.2-2.57-3.87-5.59-5-9.05-1.14-3.47-1.71-7.16-1.71-11.08s.57-7.61,1.71-11.08c1.14-3.47,2.81-6.49,5-9.05,2.2-2.57,4.88-4.59,8.06-6.08,3.18-1.48,6.83-2.22,10.96-2.22ZM47.05,56.7c1.59,0,2.96-.33,4.13-.99,1.16-.66,2.13-1.56,2.9-2.7.77-1.14,1.32-2.46,1.67-3.97.34-1.51.52-3.14.52-4.88s-.17-3.38-.52-4.88c-.35-1.51-.9-2.83-1.67-3.97-.77-1.14-1.73-2.04-2.9-2.7-1.17-.66-2.54-.99-4.13-.99s-2.97.33-4.13.99c-1.17.66-2.12,1.56-2.86,2.7-.74,1.14-1.3,2.46-1.67,3.97-.37,1.51-.56,3.14-.56,4.88s.19,3.38.56,4.88c.37,1.51.93,2.83,1.67,3.97.74,1.14,1.69,2.04,2.86,2.7,1.16.66,2.54.99,4.13.99Z"/>
        <path class="cls-3" d="M102.8,16.43c3.49,0,6.41.89,8.74,2.66,2.33,1.77,4.08,3.98,5.24,6.63,1.16,2.65,1.75,5.52,1.75,8.62s-.58,5.97-1.75,8.62c-1.17,2.65-2.91,4.86-5.24,6.63-2.33,1.77-5.24,2.66-8.74,2.66h-10.32v19.78h-16.52V16.43h26.84ZM97.8,38.91c1.48,0,2.59-.52,3.34-1.55.74-1.03,1.11-2.16,1.11-3.38s-.37-2.34-1.11-3.38c-.74-1.03-1.85-1.55-3.34-1.55h-5.32v9.85h5.32Z"/>
        <path class="cls-3" d="M136.55,32.47c0,.79.46,1.63,1.39,2.5.93.87,2.08,1.81,3.45,2.82,1.38,1.01,2.87,2.1,4.49,3.3,1.61,1.19,3.11,2.52,4.49,3.97,1.38,1.46,2.53,3.07,3.45,4.84.93,1.77,1.39,3.72,1.39,5.84,0,2.22-.36,4.36-1.07,6.39-.71,2.04-1.85,3.84-3.42,5.4s-3.56,2.79-6,3.69c-2.44.9-5.37,1.35-8.82,1.35-2.91,0-5.51-.21-7.78-.64-2.28-.42-4.2-.89-5.76-1.39-1.56-.5-2.77-.98-3.61-1.43-.85-.45-1.32-.7-1.43-.75l4.53-14.85c.42.32,1.02.73,1.79,1.23.77.5,1.67.98,2.7,1.43,1.03.45,2.18.85,3.45,1.19,1.27.34,2.62.52,4.05.52,1.75,0,2.98-.33,3.69-.99.71-.66,1.07-1.36,1.07-2.1,0-1.06-.46-2.05-1.39-2.98-.93-.93-2.08-1.88-3.46-2.86-1.38-.98-2.89-2.03-4.53-3.14-1.64-1.11-3.15-2.37-4.53-3.77-1.38-1.4-2.53-2.98-3.45-4.73-.93-1.75-1.39-3.76-1.39-6.04,0-4.82,1.64-8.62,4.92-11.4,3.28-2.78,7.97-4.17,14.06-4.17,2.38,0,4.54.17,6.47.52,1.93.35,3.59.73,4.96,1.15,1.64.53,3.12,1.11,4.45,1.75l-3.49,13.9c-1.11-.53-2.28-1-3.49-1.43-1.06-.32-2.24-.62-3.53-.91-1.3-.29-2.63-.44-4.01-.44-1.48,0-2.46.27-2.94.79-.48.53-.71,1.01-.71,1.43Z"/>
      </g>
      <g>
        <path class="cls-3" d="M230.6,66.25V19.38h5.36c7.3,11.25,24.44,37.43,27.38,42.52h.07c-.4-6.76-.33-13.66-.33-21.29v-21.22h3.68v46.87h-4.96c-6.96-10.85-24.37-38.1-27.72-43.25h-.07c.33,6.16.27,12.99.27,21.49v21.76h-3.68Z"/>
        <path class="cls-3" d="M308.06,43.22h-23.9v19.69h26.18l-.54,3.35h-29.26V19.38h28.72v3.35h-25.11v17.14h23.9v3.35Z"/>
        <path class="cls-3" d="M328.21,66.25l-12.99-46.87h3.75c3.15,11.25,10.24,37.16,11.32,42.65h.07c.87-4.35,8.57-30.26,11.85-42.65h4.02c3.08,11.45,10.58,38.97,11.32,42.58h.07c1.47-6.63,9.31-31.4,12.52-42.58h3.68l-14.33,46.87h-4.15c-3.08-11.05-10.38-38.16-11.18-42.18h-.07c-1.21,6.09-8.44,30.53-11.78,42.18h-4.08Z"/>
        <path class="cls-3" d="M382.31,53.66c1.41,6.23,5.56,9.91,13.26,9.91,8.57,0,11.85-4.29,11.85-9.37s-2.34-8.57-12.65-11.11c-9.91-2.48-14.2-5.69-14.2-12.45,0-6.16,4.49-11.92,14.53-11.92s14.66,6.29,15.27,11.99h-3.75c-1.07-5.02-4.35-8.64-11.72-8.64-6.76,0-10.45,3.15-10.45,8.37s3.08,7.16,11.72,9.31c13.19,3.28,15.13,8.57,15.13,14.19,0,6.9-5.02,12.86-15.87,12.86-11.72,0-16-6.83-16.87-13.12h3.75Z"/>
      </g>
      <path class="cls-3" d="M191.53,22.92c-.28.08-.56.17-.84.28-.26.09-.53.19-.79.3-.49.2-.97.42-1.45.67-.18.09-.36.18-.54.28-.27.15-.54.3-.8.46-.17.1-.35.21-.52.33-.12.07-.23.15-.35.23-.27.18-.53.37-.79.56-.44.33-.88.69-1.3,1.07,1.3.58,2.64,1.07,4.03,1.46.95-2.32,2.15-4.25,3.53-5.7-.06.02-.12.04-.18.06ZM196.63,22.01s.01,0,.01,0h0s-.01,0-.01,0ZM198.64,22.01c-.32-.01-.65-.02-.98-.02.33,0,.66.04.98.11v-.08s0,0,0,0h0ZM198.64,22.1v7.75c2.2-.05,4.38-.32,6.48-.79-1.63-3.81-3.93-6.42-6.48-6.96ZM189.45,30.95c-1.02,3.03-1.66,6.62-1.76,10.45h8.95v-9.55c-2.44-.06-4.85-.36-7.19-.9ZM190.18,29.07c2.11.46,4.28.72,6.46.78v-7.75c-2.54.55-4.84,3.16-6.46,6.97ZM191.53,22.92c-.28.08-.56.17-.84.28-.26.09-.53.19-.79.3-.49.2-.97.42-1.45.67-.18.09-.36.18-.54.28-.27.15-.54.3-.8.46-.17.1-.35.21-.52.33-.12.07-.23.15-.35.23-.27.18-.53.37-.79.56-.44.33-.88.69-1.3,1.07,1.3.58,2.64,1.07,4.03,1.46.95-2.32,2.15-4.25,3.53-5.7-.06.02-.12.04-.18.06ZM196.63,22.01s.01,0,.01,0h0s-.01,0-.01,0ZM198.64,22.01c-.32-.01-.65-.02-.98-.02.33,0,.66.04.98.11v-.08s0,0,0,0h0ZM198.64,22.1v7.75c2.2-.05,4.38-.32,6.48-.79-1.63-3.81-3.93-6.42-6.48-6.96ZM190.18,29.07c2.11.46,4.28.72,6.46.78v-7.75c-2.54.55-4.84,3.16-6.46,6.97ZM196.63,22.01s.01,0,.01,0h0s-.01,0-.01,0ZM191.53,22.92c-.28.08-.56.17-.84.28-.26.09-.53.19-.79.3-.49.2-.97.42-1.45.67-.18.09-.36.18-.54.28-.27.15-.54.3-.8.46-.17.1-.35.21-.52.33-.12.07-.23.15-.35.23-.27.18-.53.37-.79.56-.44.33-.88.69-1.3,1.07,1.3.58,2.64,1.07,4.03,1.46.95-2.32,2.15-4.25,3.53-5.7-.06.02-.12.04-.18.06ZM182.62,28.6c-3.25,3.52-5.12,8.01-5.35,12.8h8.43c.08-4.05.72-7.78,1.77-10.96-1.68-.49-3.3-1.1-4.85-1.84ZM189.45,30.95c-1.02,3.03-1.66,6.62-1.76,10.45h8.95v-9.55c-2.44-.06-4.85-.36-7.19-.9ZM191.53,22.92c-.28.08-.56.17-.84.28-.26.09-.53.19-.79.3-.49.2-.97.42-1.45.67-.18.09-.36.18-.54.28-.27.15-.54.3-.8.46-.17.1-.35.21-.52.33-.12.07-.23.15-.35.23-.27.18-.53.37-.79.56-.44.33-.88.69-1.3,1.07,1.3.58,2.64,1.07,4.03,1.46.95-2.32,2.15-4.25,3.53-5.7-.06.02-.12.04-.18.06ZM196.63,22.01s.01,0,.01,0h0s-.01,0-.01,0ZM190.18,29.07c2.11.46,4.28.72,6.46.78v-7.75c-2.54.55-4.84,3.16-6.46,6.97ZM198.64,22.01c-.32-.01-.65-.02-.98-.02.33,0,.66.04.98.11v-.08s0,0,0,0h0ZM198.64,22.1v7.75c2.2-.05,4.38-.32,6.48-.79-1.63-3.81-3.93-6.42-6.48-6.96ZM208.68,25.22c-.17-.11-.33-.21-.5-.31-.26-.16-.53-.31-.8-.46-.25-.14-.5-.27-.76-.39-.41-.2-.82-.39-1.23-.56-.26-.11-.52-.21-.79-.3-.28-.11-.57-.21-.87-.29-.04-.02-.08-.03-.13-.04,1.38,1.44,2.57,3.37,3.52,5.68,1.4-.4,2.75-.88,4.03-1.45-.78-.7-1.61-1.33-2.47-1.88ZM208.68,25.22c-.17-.11-.33-.21-.5-.31-.26-.16-.53-.31-.8-.46-.25-.14-.5-.27-.76-.39-.41-.2-.82-.39-1.23-.56-.26-.11-.52-.21-.79-.3-.28-.11-.57-.21-.87-.29-.04-.02-.08-.03-.13-.04,1.38,1.44,2.57,3.37,3.52,5.68,1.4-.4,2.75-.88,4.03-1.45-.78-.7-1.61-1.33-2.47-1.88ZM182.62,28.6c-3.25,3.52-5.12,8.01-5.35,12.8h8.43c.08-4.05.72-7.78,1.77-10.96-1.68-.49-3.3-1.1-4.85-1.84ZM205.85,30.95c-2.32.54-4.74.84-7.21.9v9.55h8.97c-.1-3.83-.74-7.42-1.76-10.45ZM189.45,30.95c-1.02,3.03-1.66,6.62-1.76,10.45h8.95v-9.55c-2.44-.06-4.85-.36-7.19-.9ZM198.64,22.1v7.75c2.2-.05,4.38-.32,6.48-.79-1.63-3.81-3.93-6.42-6.48-6.96ZM198.64,22.01c-.32-.01-.65-.02-.98-.02.33,0,.66.04.98.11v-.08s0,0,0,0h0ZM190.18,29.07c2.11.46,4.28.72,6.46.78v-7.75c-2.54.55-4.84,3.16-6.46,6.97ZM196.63,22.01s.01,0,.01,0h0s-.01,0-.01,0ZM191.53,22.92c-.28.08-.56.17-.84.28-.26.09-.53.19-.79.3-.49.2-.97.42-1.45.67-.18.09-.36.18-.54.28-.27.15-.54.3-.8.46-.17.1-.35.21-.52.33-.12.07-.23.15-.35.23-.27.18-.53.37-.79.56-.44.33-.88.69-1.3,1.07,1.3.58,2.64,1.07,4.03,1.46.95-2.32,2.15-4.25,3.53-5.7-.06.02-.12.04-.18.06ZM212.68,28.6c-1.53.73-3.16,1.34-4.86,1.83,1.06,3.18,1.7,6.92,1.78,10.97h8.44c-.23-4.79-2.11-9.28-5.36-12.8ZM182.62,28.6c-3.25,3.52-5.12,8.01-5.35,12.8h8.43c.08-4.05.72-7.78,1.77-10.96-1.68-.49-3.3-1.1-4.85-1.84ZM191.53,22.92c-.28.08-.56.17-.84.28-.26.09-.53.19-.79.3-.49.2-.97.42-1.45.67-.18.09-.36.18-.54.28-.27.15-.54.3-.8.46-.17.1-.35.21-.52.33-.12.07-.23.15-.35.23-.27.18-.53.37-.79.56-.44.33-.88.69-1.3,1.07,1.3.58,2.64,1.07,4.03,1.46.95-2.32,2.15-4.25,3.53-5.7-.06.02-.12.04-.18.06ZM196.63,22.01s.01,0,.01,0h0s-.01,0-.01,0ZM190.18,29.07c2.11.46,4.28.72,6.46.78v-7.75c-2.54.55-4.84,3.16-6.46,6.97ZM198.64,22.01c-.32-.01-.65-.02-.98-.02.33,0,.66.04.98.11v-.08s0,0,0,0h0ZM198.64,22.1v7.75c2.2-.05,4.38-.32,6.48-.79-1.63-3.81-3.93-6.42-6.48-6.96ZM205.85,30.95c-2.32.54-4.74.84-7.21.9v9.55h8.97c-.1-3.83-.74-7.42-1.76-10.45ZM189.45,30.95c-1.02,3.03-1.66,6.62-1.76,10.45h8.95v-9.55c-2.44-.06-4.85-.36-7.19-.9ZM208.68,25.22c-.17-.11-.33-.21-.5-.31-.26-.16-.53-.31-.8-.46-.25-.14-.5-.27-.76-.39-.41-.2-.82-.39-1.23-.56-.26-.11-.52-.21-.79-.3-.28-.11-.57-.21-.87-.29-.04-.02-.08-.03-.13-.04,1.38,1.44,2.57,3.37,3.52,5.68,1.4-.4,2.75-.88,4.03-1.45-.78-.7-1.61-1.33-2.47-1.88ZM212.68,28.6c-1.53.73-3.16,1.34-4.86,1.83,1.06,3.18,1.7,6.92,1.78,10.97h8.44c-.23-4.79-2.11-9.28-5.36-12.8ZM198.64,53.36v9.34c2.86-.61,5.41-3.82,7.06-8.43-2.3-.54-4.68-.85-7.06-.91ZM197.98,62.79c.22,0,.44,0,.66-.02v-.07c-.22.05-.44.08-.66.09ZM187.63,54.81c-1.59.48-3.14,1.09-4.6,1.82.29.3.6.6.91.88.44.4.91.79,1.38,1.15.27.2.55.4.83.59.28.19.56.38.85.55.28.18.56.34.85.5.01,0,.02.01.03.02.27.14.54.28.82.42.04.02.07.03.11.05.23.11.46.22.7.32.1.05.21.09.31.13.2.09.4.17.61.24.41.16.83.3,1.25.42-1.65-1.73-3.03-4.16-4.05-7.09ZM189.6,54.27c1.64,4.6,4.18,7.81,7.04,8.43v-9.34c-2.39.06-4.75.37-7.04.91ZM196.64,62.7v.07c.24.02.47.02.7.02-.24-.01-.47-.04-.7-.09ZM207.67,54.81c-1.02,2.93-2.4,5.36-4.04,7.09.41-.12.82-.26,1.23-.42.2-.07.41-.15.61-.24.1-.04.2-.09.31-.13.24-.1.47-.21.7-.32.04-.02.07-.04.11-.05.28-.14.55-.28.82-.42.01-.02.03-.02.04-.03.29-.16.57-.32.85-.49.31-.19.62-.4.93-.61.41-.28.8-.58,1.19-.88.38-.31.76-.64,1.12-.97.25-.23.49-.47.73-.72-1.46-.72-3.01-1.33-4.6-1.81ZM198.64,43.4v7.96c2.58.06,5.16.4,7.66,1,.76-2.69,1.23-5.74,1.31-8.96h-8.97ZM187.69,43.4c.08,3.22.55,6.27,1.3,8.96,2.49-.6,5.06-.94,7.65-1v-7.96h-8.95ZM177.28,43.4c.2,4.26,1.74,8.35,4.38,11.68,1.7-.88,3.51-1.62,5.38-2.19-.8-2.84-1.27-6.05-1.34-9.49h-8.42ZM209.6,43.4c-.07,3.44-.54,6.65-1.34,9.49,1.87.57,3.68,1.31,5.38,2.19,2.65-3.33,4.19-7.42,4.39-11.68h-8.43ZM208.68,25.22c-.17-.11-.33-.21-.5-.31-.26-.16-.53-.31-.8-.46-.25-.14-.5-.27-.76-.39-.41-.2-.82-.39-1.23-.56-.26-.11-.52-.21-.79-.3-.28-.11-.57-.21-.87-.29-.04-.02-.08-.03-.13-.04,1.38,1.44,2.57,3.37,3.52,5.68,1.4-.4,2.75-.88,4.03-1.45-.78-.7-1.61-1.33-2.47-1.88ZM205.85,30.95c-2.32.54-4.74.84-7.21.9v9.55h8.97c-.1-3.83-.74-7.42-1.76-10.45ZM198.64,22.1v7.75c2.2-.05,4.38-.32,6.48-.79-1.63-3.81-3.93-6.42-6.48-6.96ZM198.64,22.01c-.32-.01-.65-.02-.98-.02.33,0,.66.04.98.11v-.08s0,0,0,0h0ZM189.45,30.95c-1.02,3.03-1.66,6.62-1.76,10.45h8.95v-9.55c-2.44-.06-4.85-.36-7.19-.9ZM190.18,29.07c2.11.46,4.28.72,6.46.78v-7.75c-2.54.55-4.84,3.16-6.46,6.97ZM196.63,22.01s.01,0,.01,0h0s-.01,0-.01,0ZM191.53,22.92c-.28.08-.56.17-.84.28-.26.09-.53.19-.79.3-.49.2-.97.42-1.45.67-.18.09-.36.18-.54.28-.27.15-.54.3-.8.46-.17.1-.35.21-.52.33-.12.07-.23.15-.35.23-.27.18-.53.37-.79.56-.44.33-.88.69-1.3,1.07,1.3.58,2.64,1.07,4.03,1.46.95-2.32,2.15-4.25,3.53-5.7-.06.02-.12.04-.18.06ZM182.62,28.6c-3.25,3.52-5.12,8.01-5.35,12.8h8.43c.08-4.05.72-7.78,1.77-10.96-1.68-.49-3.3-1.1-4.85-1.84ZM212.68,28.6c-1.53.73-3.16,1.34-4.86,1.83,1.06,3.18,1.7,6.92,1.78,10.97h8.44c-.23-4.79-2.11-9.28-5.36-12.8ZM182.62,28.6c-3.25,3.52-5.12,8.01-5.35,12.8h8.43c.08-4.05.72-7.78,1.77-10.96-1.68-.49-3.3-1.1-4.85-1.84ZM191.53,22.92c-.28.08-.56.17-.84.28-.26.09-.53.19-.79.3-.49.2-.97.42-1.45.67-.18.09-.36.18-.54.28-.27.15-.54.3-.8.46-.17.1-.35.21-.52.33-.12.07-.23.15-.35.23-.27.18-.53.37-.79.56-.44.33-.88.69-1.3,1.07,1.3.58,2.64,1.07,4.03,1.46.95-2.32,2.15-4.25,3.53-5.7-.06.02-.12.04-.18.06ZM196.63,22.01s.01,0,.01,0h0s-.01,0-.01,0ZM190.18,29.07c2.11.46,4.28.72,6.46.78v-7.75c-2.54.55-4.84,3.16-6.46,6.97ZM189.45,30.95c-1.02,3.03-1.66,6.62-1.76,10.45h8.95v-9.55c-2.44-.06-4.85-.36-7.19-.9ZM198.64,22.01c-.32-.01-.65-.02-.98-.02.33,0,.66.04.98.11v-.08s0,0,0,0h0ZM198.64,22.1v7.75c2.2-.05,4.38-.32,6.48-.79-1.63-3.81-3.93-6.42-6.48-6.96ZM205.85,30.95c-2.32.54-4.74.84-7.21.9v9.55h8.97c-.1-3.83-.74-7.42-1.76-10.45ZM208.68,25.22c-.17-.11-.33-.21-.5-.31-.26-.16-.53-.31-.8-.46-.25-.14-.5-.27-.76-.39-.41-.2-.82-.39-1.23-.56-.26-.11-.52-.21-.79-.3-.28-.11-.57-.21-.87-.29-.04-.02-.08-.03-.13-.04,1.38,1.44,2.57,3.37,3.52,5.68,1.4-.4,2.75-.88,4.03-1.45-.78-.7-1.61-1.33-2.47-1.88ZM198.64,43.4v7.96c2.58.06,5.16.4,7.66,1,.76-2.69,1.23-5.74,1.31-8.96h-8.97ZM187.69,43.4c.08,3.22.55,6.27,1.3,8.96,2.49-.6,5.06-.94,7.65-1v-7.96h-8.95ZM177.28,43.4c.2,4.26,1.74,8.35,4.38,11.68,1.7-.88,3.51-1.62,5.38-2.19-.8-2.84-1.27-6.05-1.34-9.49h-8.42ZM209.6,43.4c-.07,3.44-.54,6.65-1.34,9.49,1.87.57,3.68,1.31,5.38,2.19,2.65-3.33,4.19-7.42,4.39-11.68h-8.43ZM212.68,28.6c-1.53.73-3.16,1.34-4.86,1.83,1.06,3.18,1.7,6.92,1.78,10.97h8.44c-.23-4.79-2.11-9.28-5.36-12.8ZM198.64,43.4v7.96c2.58.06,5.16.4,7.66,1,.76-2.69,1.23-5.74,1.31-8.96h-8.97ZM187.69,43.4c.08,3.22.55,6.27,1.3,8.96,2.49-.6,5.06-.94,7.65-1v-7.96h-8.95ZM177.28,43.4c.2,4.26,1.74,8.35,4.38,11.68,1.7-.88,3.51-1.62,5.38-2.19-.8-2.84-1.27-6.05-1.34-9.49h-8.42ZM209.6,43.4c-.07,3.44-.54,6.65-1.34,9.49,1.87.57,3.68,1.31,5.38,2.19,2.65-3.33,4.19-7.42,4.39-11.68h-8.43ZM208.68,25.22c-.17-.11-.33-.21-.5-.31-.26-.16-.53-.31-.8-.46-.25-.14-.5-.27-.76-.39-.41-.2-.82-.39-1.23-.56-.26-.11-.52-.21-.79-.3-.28-.11-.57-.21-.87-.29-.04-.02-.08-.03-.13-.04,1.38,1.44,2.57,3.37,3.52,5.68,1.4-.4,2.75-.88,4.03-1.45-.78-.7-1.61-1.33-2.47-1.88ZM198.64,53.36v9.34c2.86-.61,5.41-3.82,7.06-8.43-2.3-.54-4.68-.85-7.06-.91ZM197.98,62.79c.22,0,.44,0,.66-.02v-.07c-.22.05-.44.08-.66.09ZM187.63,54.81c-1.59.48-3.14,1.09-4.6,1.82.29.3.6.6.91.88.44.4.91.79,1.38,1.15.27.2.55.4.83.59.28.19.56.38.85.55.28.18.56.34.85.5.01,0,.02.01.03.02.27.14.54.28.82.42.04.02.07.03.11.05.23.11.46.22.7.32.1.05.21.09.31.13.2.09.4.17.61.24.41.16.83.3,1.25.42-1.65-1.73-3.03-4.16-4.05-7.09ZM191.68,61.9h0s.03.02.04.02c-.02-.01-.03-.01-.04-.02ZM189.6,54.27c1.64,4.6,4.18,7.81,7.04,8.43v-9.34c-2.39.06-4.75.37-7.04.91ZM196.64,62.7v.07c.24.02.47.02.7.02-.24-.01-.47-.04-.7-.09ZM207.67,54.81c-1.02,2.93-2.4,5.36-4.04,7.09.41-.12.82-.26,1.23-.42.2-.07.41-.15.61-.24.1-.04.2-.09.31-.13.24-.1.47-.21.7-.32.04-.02.07-.04.11-.05.28-.14.55-.28.82-.42.01-.02.03-.02.04-.03.29-.16.57-.32.85-.49.31-.19.62-.4.93-.61.41-.28.8-.58,1.19-.88.38-.31.76-.64,1.12-.97.25-.23.49-.47.73-.72-1.46-.72-3.01-1.33-4.6-1.81ZM205.85,30.95c-2.32.54-4.74.84-7.21.9v9.55h8.97c-.1-3.83-.74-7.42-1.76-10.45ZM198.64,22.1v7.75c2.2-.05,4.38-.32,6.48-.79-1.63-3.81-3.93-6.42-6.48-6.96ZM198.64,22.01c-.32-.01-.65-.02-.98-.02.33,0,.66.04.98.11v-.08s0,0,0,0h0ZM189.45,30.95c-1.02,3.03-1.66,6.62-1.76,10.45h8.95v-9.55c-2.44-.06-4.85-.36-7.19-.9ZM190.18,29.07c2.11.46,4.28.72,6.46.78v-7.75c-2.54.55-4.84,3.16-6.46,6.97ZM196.63,22.01s.01,0,.01,0h0s-.01,0-.01,0ZM191.53,22.92c-.28.08-.56.17-.84.28-.26.09-.53.19-.79.3-.49.2-.97.42-1.45.67-.18.09-.36.18-.54.28-.27.15-.54.3-.8.46-.17.1-.35.21-.52.33-.12.07-.23.15-.35.23-.27.18-.53.37-.79.56-.44.33-.88.69-1.3,1.07,1.3.58,2.64,1.07,4.03,1.46.95-2.32,2.15-4.25,3.53-5.7-.06.02-.12.04-.18.06ZM182.62,28.6c-3.25,3.52-5.12,8.01-5.35,12.8h8.43c.08-4.05.72-7.78,1.77-10.96-1.68-.49-3.3-1.1-4.85-1.84ZM212.68,28.6c-1.53.73-3.16,1.34-4.86,1.83,1.06,3.18,1.7,6.92,1.78,10.97h8.44c-.23-4.79-2.11-9.28-5.36-12.8ZM182.62,28.6c-3.25,3.52-5.12,8.01-5.35,12.8h8.43c.08-4.05.72-7.78,1.77-10.96-1.68-.49-3.3-1.1-4.85-1.84ZM198.64,43.4v7.96c2.58.06,5.16.4,7.66,1,.76-2.69,1.23-5.74,1.31-8.96h-8.97ZM187.69,43.4c.08,3.22.55,6.27,1.3,8.96,2.49-.6,5.06-.94,7.65-1v-7.96h-8.95ZM177.28,43.4c.2,4.26,1.74,8.35,4.38,11.68,1.7-.88,3.51-1.62,5.38-2.19-.8-2.84-1.27-6.05-1.34-9.49h-8.42ZM191.53,22.92c-.28.08-.56.17-.84.28-.26.09-.53.19-.79.3-.49.2-.97.42-1.45.67-.18.09-.36.18-.54.28-.27.15-.54.3-.8.46-.17.1-.35.21-.52.33-.12.07-.23.15-.35.23-.27.18-.53.37-.79.56-.44.33-.88.69-1.3,1.07,1.3.58,2.64,1.07,4.03,1.46.95-2.32,2.15-4.25,3.53-5.7-.06.02-.12.04-.18.06ZM196.63,22.01s.01,0,.01,0h0s-.01,0-.01,0ZM190.18,29.07c2.11.46,4.28.72,6.46.78v-7.75c-2.54.55-4.84,3.16-6.46,6.97ZM189.45,30.95c-1.02,3.03-1.66,6.62-1.76,10.45h8.95v-9.55c-2.44-.06-4.85-.36-7.19-.9ZM198.64,22.01c-.32-.01-.65-.02-.98-.02.33,0,.66.04.98.11v-.08s0,0,0,0h0ZM198.64,22.1v7.75c2.2-.05,4.38-.32,6.48-.79-1.63-3.81-3.93-6.42-6.48-6.96ZM198.64,53.36v9.34c2.86-.61,5.41-3.82,7.06-8.43-2.3-.54-4.68-.85-7.06-.91ZM197.98,62.79c.22,0,.44,0,.66-.02v-.07c-.22.05-.44.08-.66.09ZM197.5,62.8s.1.01.15.01.1,0,.15-.01h-.3ZM187.63,54.81c-1.59.48-3.14,1.09-4.6,1.82.29.3.6.6.91.88.44.4.91.79,1.38,1.15.27.2.55.4.83.59.28.19.56.38.85.55.28.18.56.34.85.5.01,0,.02.01.03.02.27.14.54.28.82.42.04.02.07.03.11.05.23.11.46.22.7.32.1.05.21.09.31.13.2.09.4.17.61.24.41.16.83.3,1.25.42-1.65-1.73-3.03-4.16-4.05-7.09ZM191.68,61.9h0s.03.02.04.02c-.02-.01-.03-.01-.04-.02ZM189.6,54.27c1.64,4.6,4.18,7.81,7.04,8.43v-9.34c-2.39.06-4.75.37-7.04.91ZM196.64,62.7v.07c.24.02.47.02.7.02-.24-.01-.47-.04-.7-.09ZM205.85,30.95c-2.32.54-4.74.84-7.21.9v9.55h8.97c-.1-3.83-.74-7.42-1.76-10.45ZM208.68,25.22c-.17-.11-.33-.21-.5-.31-.26-.16-.53-.31-.8-.46-.25-.14-.5-.27-.76-.39-.41-.2-.82-.39-1.23-.56-.26-.11-.52-.21-.79-.3-.28-.11-.57-.21-.87-.29-.04-.02-.08-.03-.13-.04,1.38,1.44,2.57,3.37,3.52,5.68,1.4-.4,2.75-.88,4.03-1.45-.78-.7-1.61-1.33-2.47-1.88ZM207.67,54.81c-1.02,2.93-2.4,5.36-4.04,7.09.41-.12.82-.26,1.23-.42.2-.07.41-.15.61-.24.1-.04.2-.09.31-.13.24-.1.47-.21.7-.32.04-.02.07-.04.11-.05.28-.14.55-.28.82-.42.01-.02.03-.02.04-.03.29-.16.57-.32.85-.49.31-.19.62-.4.93-.61.41-.28.8-.58,1.19-.88.38-.31.76-.64,1.12-.97.25-.23.49-.47.73-.72-1.46-.72-3.01-1.33-4.6-1.81ZM212.68,28.6c-1.53.73-3.16,1.34-4.86,1.83,1.06,3.18,1.7,6.92,1.78,10.97h8.44c-.23-4.79-2.11-9.28-5.36-12.8ZM209.6,43.4c-.07,3.44-.54,6.65-1.34,9.49,1.87.57,3.68,1.31,5.38,2.19,2.65-3.33,4.19-7.42,4.39-11.68h-8.43ZM207.67,54.81c-1.02,2.93-2.4,5.36-4.04,7.09.41-.12.82-.26,1.23-.42.2-.07.41-.15.61-.24.1-.04.2-.09.31-.13.24-.1.47-.21.7-.32.04-.02.07-.04.11-.05.28-.14.55-.28.82-.42.01-.02.03-.02.04-.03.29-.16.57-.32.85-.49.31-.19.62-.4.93-.61.41-.28.8-.58,1.19-.88.38-.31.76-.64,1.12-.97.25-.23.49-.47.73-.72-1.46-.72-3.01-1.33-4.6-1.81ZM208.68,25.22c-.17-.11-.33-.21-.5-.31-.26-.16-.53-.31-.8-.46-.25-.14-.5-.27-.76-.39-.41-.2-.82-.39-1.23-.56-.26-.11-.52-.21-.79-.3-.28-.11-.57-.21-.87-.29-.04-.02-.08-.03-.13-.04,1.38,1.44,2.57,3.37,3.52,5.68,1.4-.4,2.75-.88,4.03-1.45-.78-.7-1.61-1.33-2.47-1.88ZM205.85,30.95c-2.32.54-4.74.84-7.21.9v9.55h8.97c-.1-3.83-.74-7.42-1.76-10.45ZM198.64,43.4v7.96c2.58.06,5.16.4,7.66,1,.76-2.69,1.23-5.74,1.31-8.96h-8.97ZM198.64,53.36v9.34c2.86-.61,5.41-3.82,7.06-8.43-2.3-.54-4.68-.85-7.06-.91ZM198.64,22.1v7.75c2.2-.05,4.38-.32,6.48-.79-1.63-3.81-3.93-6.42-6.48-6.96ZM197.98,62.79c.22,0,.44,0,.66-.02v-.07c-.22.05-.44.08-.66.09ZM198.64,22.01c-.32-.01-.65-.02-.98-.02.33,0,.66.04.98.11v-.08s0,0,0,0h0ZM197.5,62.8s.1.01.15.01.1,0,.15-.01h-.3ZM187.63,54.81c-1.59.48-3.14,1.09-4.6,1.82.29.3.6.6.91.88.44.4.91.79,1.38,1.15.27.2.55.4.83.59.28.19.56.38.85.55.28.18.56.34.85.5.01,0,.02.01.03.02.27.14.54.28.82.42.04.02.07.03.11.05.23.11.46.22.7.32.1.05.21.09.31.13.2.09.4.17.61.24.41.16.83.3,1.25.42-1.65-1.73-3.03-4.16-4.05-7.09ZM191.68,61.9h0s.03.02.04.02c-.02-.01-.03-.01-.04-.02ZM189.6,54.27c1.64,4.6,4.18,7.81,7.04,8.43v-9.34c-2.39.06-4.75.37-7.04.91ZM196.64,62.7v.07c.24.02.47.02.7.02-.24-.01-.47-.04-.7-.09ZM189.45,30.95c-1.02,3.03-1.66,6.62-1.76,10.45h8.95v-9.55c-2.44-.06-4.85-.36-7.19-.9ZM190.18,29.07c2.11.46,4.28.72,6.46.78v-7.75c-2.54.55-4.84,3.16-6.46,6.97ZM196.63,22.01s.01,0,.01,0h0s-.01,0-.01,0ZM191.53,22.92c-.28.08-.56.17-.84.28-.26.09-.53.19-.79.3-.49.2-.97.42-1.45.67-.18.09-.36.18-.54.28-.27.15-.54.3-.8.46-.17.1-.35.21-.52.33-.12.07-.23.15-.35.23-.27.18-.53.37-.79.56-.44.33-.88.69-1.3,1.07,1.3.58,2.64,1.07,4.03,1.46.95-2.32,2.15-4.25,3.53-5.7-.06.02-.12.04-.18.06ZM187.69,43.4c.08,3.22.55,6.27,1.3,8.96,2.49-.6,5.06-.94,7.65-1v-7.96h-8.95ZM177.28,43.4c.2,4.26,1.74,8.35,4.38,11.68,1.7-.88,3.51-1.62,5.38-2.19-.8-2.84-1.27-6.05-1.34-9.49h-8.42ZM182.62,28.6c-3.25,3.52-5.12,8.01-5.35,12.8h8.43c.08-4.05.72-7.78,1.77-10.96-1.68-.49-3.3-1.1-4.85-1.84ZM212.68,28.6c-1.53.73-3.16,1.34-4.86,1.83,1.06,3.18,1.7,6.92,1.78,10.97h8.44c-.23-4.79-2.11-9.28-5.36-12.8ZM209.6,43.4c-.07,3.44-.54,6.65-1.34,9.49,1.87.57,3.68,1.31,5.38,2.19,2.65-3.33,4.19-7.42,4.39-11.68h-8.43ZM182.62,28.6c-3.25,3.52-5.12,8.01-5.35,12.8h8.43c.08-4.05.72-7.78,1.77-10.96-1.68-.49-3.3-1.1-4.85-1.84ZM187.69,43.4c.08,3.22.55,6.27,1.3,8.96,2.49-.6,5.06-.94,7.65-1v-7.96h-8.95ZM177.28,43.4c.2,4.26,1.74,8.35,4.38,11.68,1.7-.88,3.51-1.62,5.38-2.19-.8-2.84-1.27-6.05-1.34-9.49h-8.42ZM187.63,54.81c-1.59.48-3.14,1.09-4.6,1.82.29.3.6.6.91.88.44.4.91.79,1.38,1.15.27.2.55.4.83.59.28.19.56.38.85.55.28.18.56.34.85.5.01,0,.02.01.03.02.27.14.54.28.82.42.04.02.07.03.11.05.23.11.46.22.7.32.1.05.21.09.31.13.2.09.4.17.61.24.41.16.83.3,1.25.42-1.65-1.73-3.03-4.16-4.05-7.09ZM191.53,22.92c-.28.08-.56.17-.84.28-.26.09-.53.19-.79.3-.49.2-.97.42-1.45.67-.18.09-.36.18-.54.28-.27.15-.54.3-.8.46-.17.1-.35.21-.52.33-.12.07-.23.15-.35.23-.27.18-.53.37-.79.56-.44.33-.88.69-1.3,1.07,1.3.58,2.64,1.07,4.03,1.46.95-2.32,2.15-4.25,3.53-5.7-.06.02-.12.04-.18.06ZM191.68,61.9h0s.03.02.04.02c-.02-.01-.03-.01-.04-.02ZM196.63,22.01s.01,0,.01,0h0s-.01,0-.01,0ZM190.18,29.07c2.11.46,4.28.72,6.46.78v-7.75c-2.54.55-4.84,3.16-6.46,6.97ZM189.45,30.95c-1.02,3.03-1.66,6.62-1.76,10.45h8.95v-9.55c-2.44-.06-4.85-.36-7.19-.9ZM189.6,54.27c1.64,4.6,4.18,7.81,7.04,8.43v-9.34c-2.39.06-4.75.37-7.04.91ZM196.64,62.7v.07c.24.02.47.02.7.02-.24-.01-.47-.04-.7-.09ZM197.5,62.8s.1.01.15.01.1,0,.15-.01h-.3ZM198.64,22.01c-.32-.01-.65-.02-.98-.02.33,0,.66.04.98.11v-.08s0,0,0,0h0ZM197.98,62.79c.22,0,.44,0,.66-.02v-.07c-.22.05-.44.08-.66.09ZM198.64,22.1v7.75c2.2-.05,4.38-.32,6.48-.79-1.63-3.81-3.93-6.42-6.48-6.96ZM198.64,53.36v9.34c2.86-.61,5.41-3.82,7.06-8.43-2.3-.54-4.68-.85-7.06-.91ZM198.64,43.4v7.96c2.58.06,5.16.4,7.66,1,.76-2.69,1.23-5.74,1.31-8.96h-8.97ZM205.85,30.95c-2.32.54-4.74.84-7.21.9v9.55h8.97c-.1-3.83-.74-7.42-1.76-10.45ZM208.68,25.22c-.17-.11-.33-.21-.5-.31-.26-.16-.53-.31-.8-.46-.25-.14-.5-.27-.76-.39-.41-.2-.82-.39-1.23-.56-.26-.11-.52-.21-.79-.3-.28-.11-.57-.21-.87-.29-.04-.02-.08-.03-.13-.04,1.38,1.44,2.57,3.37,3.52,5.68,1.4-.4,2.75-.88,4.03-1.45-.78-.7-1.61-1.33-2.47-1.88ZM207.67,54.81c-1.02,2.93-2.4,5.36-4.04,7.09.41-.12.82-.26,1.23-.42.2-.07.41-.15.61-.24.1-.04.2-.09.31-.13.24-.1.47-.21.7-.32.04-.02.07-.04.11-.05.28-.14.55-.28.82-.42.01-.02.03-.02.04-.03.29-.16.57-.32.85-.49.31-.19.62-.4.93-.61.41-.28.8-.58,1.19-.88.38-.31.76-.64,1.12-.97.25-.23.49-.47.73-.72-1.46-.72-3.01-1.33-4.6-1.81ZM209.6,41.4h8.44c-.23-4.79-2.11-9.28-5.36-12.8-1.53.73-3.16,1.34-4.86,1.83,1.06,3.18,1.7,6.92,1.78,10.97ZM208.26,52.89c1.87.57,3.68,1.31,5.38,2.19,2.65-3.33,4.19-7.42,4.39-11.68h-8.43c-.07,3.44-.54,6.65-1.34,9.49ZM203.63,61.9c.41-.12.82-.26,1.23-.42.2-.07.41-.15.61-.24.1-.04.2-.09.31-.13.24-.1.47-.21.7-.32.04-.02.07-.04.11-.05.28-.14.55-.28.82-.42.01-.02.03-.02.04-.03.29-.16.57-.32.85-.49.31-.19.62-.4.93-.61.41-.28.8-.58,1.19-.88.38-.31.76-.64,1.12-.97.25-.23.49-.47.73-.72-1.46-.72-3.01-1.33-4.6-1.81-1.02,2.93-2.4,5.36-4.04,7.09ZM211.15,27.1c-.78-.7-1.61-1.33-2.47-1.88-.17-.11-.33-.21-.5-.31-.26-.16-.53-.31-.8-.46-.25-.14-.5-.27-.76-.39-.41-.2-.82-.39-1.23-.56-.26-.11-.52-.21-.79-.3-.28-.11-.57-.21-.87-.29-.04-.02-.08-.03-.13-.04,1.38,1.44,2.57,3.37,3.52,5.68,1.4-.4,2.75-.88,4.03-1.45ZM205.85,30.95c-2.32.54-4.74.84-7.21.9v9.55h8.97c-.1-3.83-.74-7.42-1.76-10.45ZM198.64,51.36c2.58.06,5.16.4,7.66,1,.76-2.69,1.23-5.74,1.31-8.96h-8.97v7.96ZM198.64,53.36v9.34c2.86-.61,5.41-3.82,7.06-8.43-2.3-.54-4.68-.85-7.06-.91ZM205.12,29.06c-1.63-3.81-3.93-6.42-6.48-6.96v7.75c2.2-.05,4.38-.32,6.48-.79ZM198.64,62.77v-.07c-.22.05-.44.08-.66.09.22,0,.44,0,.66-.02ZM198.64,22.02s0,0,0,0h0c-.32-.01-.65-.02-.98-.02.33,0,.66.04.98.11v-.08ZM197.65,62.81c.05,0,.1,0,.15-.01h-.3s.1.01.15.01ZM196.64,62.77c.24.02.47.02.7.02-.24-.01-.47-.04-.7-.09v.07ZM189.6,54.27c1.64,4.6,4.18,7.81,7.04,8.43v-9.34c-2.39.06-4.75.37-7.04.91ZM188.99,52.36c2.49-.6,5.06-.94,7.65-1v-7.96h-8.95c.08,3.22.55,6.27,1.3,8.96ZM196.64,31.85c-2.44-.06-4.85-.36-7.19-.9-1.02,3.03-1.66,6.62-1.76,10.45h8.95v-9.55ZM196.64,29.85v-7.75c-2.54.55-4.84,3.16-6.46,6.97,2.11.46,4.28.72,6.46.78ZM196.64,22.01h-.01s.01,0,.01,0h0ZM191.68,61.91s.03.01.04.01c-.02-.01-.03-.01-.04-.02h0ZM191.71,22.86c-.06.02-.12.04-.18.06-.28.08-.56.17-.84.28-.26.09-.53.19-.79.3-.49.2-.97.42-1.45.67-.18.09-.36.18-.54.28-.27.15-.54.3-.8.46-.17.1-.35.21-.52.33-.12.07-.23.15-.35.23-.27.18-.53.37-.79.56-.44.33-.88.69-1.3,1.07,1.3.58,2.64,1.07,4.03,1.46.95-2.32,2.15-4.25,3.53-5.7ZM183.03,56.63c.29.3.6.6.91.88.44.4.91.79,1.38,1.15.27.2.55.4.83.59.28.19.56.38.85.55.28.18.56.34.85.5.01,0,.02.01.03.02.27.14.54.28.82.42.04.02.07.03.11.05.23.11.46.22.7.32.1.05.21.09.31.13.2.09.4.17.61.24.41.16.83.3,1.25.42-1.65-1.73-3.03-4.16-4.05-7.09-1.59.48-3.14,1.09-4.6,1.82ZM187.47,30.44c-1.68-.49-3.3-1.1-4.85-1.84-3.25,3.52-5.12,8.01-5.35,12.8h8.43c.08-4.05.72-7.78,1.77-10.96ZM185.7,43.4h-8.42c.2,4.26,1.74,8.35,4.38,11.68,1.7-.88,3.51-1.62,5.38-2.19-.8-2.84-1.27-6.05-1.34-9.49ZM209.6,41.4h8.44c-.23-4.79-2.11-9.28-5.36-12.8-1.53.73-3.16,1.34-4.86,1.83,1.06,3.18,1.7,6.92,1.78,10.97ZM208.26,52.89c1.87.57,3.68,1.31,5.38,2.19,2.65-3.33,4.19-7.42,4.39-11.68h-8.43c-.07,3.44-.54,6.65-1.34,9.49ZM197.78,15.98c-14.59,0-26.42,11.83-26.42,26.42s11.83,26.41,26.42,26.41,26.42-11.82,26.42-26.41-11.83-26.42-26.42-26.42ZM215.42,56.04c-.12.16-.24.32-.37.48l-.4.47c-4.12,4.8-10.06,7.62-16.38,7.79-.06.01-.12.01-.19.01-.14.01-.29.01-.44.01h-.2c-.07.01-.14,0-.2-.01-.07,0-.14,0-.21-.01-6.32-.16-12.26-2.99-16.38-7.79l-.4-.47c-.13-.16-.25-.33-.37-.49-3-3.89-4.63-8.68-4.63-13.63,0-5.47,1.94-10.65,5.51-14.73.3-.34.61-.68.93-1,4.14-4.21,9.64-6.57,15.54-6.67.14-.01.27-.01.41-.01h.02c.14,0,.28,0,.42.01,5.88.11,11.38,2.46,15.54,6.67.32.32.63.66.93,1,3.56,4.08,5.51,9.26,5.51,14.73,0,4.95-1.64,9.75-4.64,13.64ZM203.63,61.9c.41-.12.82-.26,1.23-.42.2-.07.41-.15.61-.24.1-.04.2-.09.31-.13.24-.1.47-.21.7-.32.04-.02.07-.04.11-.05.28-.14.55-.28.82-.42.01-.02.03-.02.04-.03.29-.16.57-.32.85-.49.31-.19.62-.4.93-.61.41-.28.8-.58,1.19-.88.38-.31.76-.64,1.12-.97.25-.23.49-.47.73-.72-1.46-.72-3.01-1.33-4.6-1.81-1.02,2.93-2.4,5.36-4.04,7.09ZM211.15,27.1c-.78-.7-1.61-1.33-2.47-1.88-.17-.11-.33-.21-.5-.31-.26-.16-.53-.31-.8-.46-.25-.14-.5-.27-.76-.39-.41-.2-.82-.39-1.23-.56-.26-.11-.52-.21-.79-.3-.28-.11-.57-.21-.87-.29-.04-.02-.08-.03-.13-.04,1.38,1.44,2.57,3.37,3.52,5.68,1.4-.4,2.75-.88,4.03-1.45ZM205.85,30.95c-2.32.54-4.74.84-7.21.9v9.55h8.97c-.1-3.83-.74-7.42-1.76-10.45ZM198.64,51.36c2.58.06,5.16.4,7.66,1,.76-2.69,1.23-5.74,1.31-8.96h-8.97v7.96ZM198.64,53.36v9.34c2.86-.61,5.41-3.82,7.06-8.43-2.3-.54-4.68-.85-7.06-.91ZM205.12,29.06c-1.63-3.81-3.93-6.42-6.48-6.96v7.75c2.2-.05,4.38-.32,6.48-.79ZM198.64,62.77v-.07c-.22.05-.44.08-.66.09.22,0,.44,0,.66-.02ZM198.64,22.02s0,0,0,0h0c-.32-.01-.65-.02-.98-.02.33,0,.66.04.98.11v-.08ZM197.65,62.81c.05,0,.1,0,.15-.01h-.3s.1.01.15.01ZM196.64,62.77c.24.02.47.02.7.02-.24-.01-.47-.04-.7-.09v.07ZM189.6,54.27c1.64,4.6,4.18,7.81,7.04,8.43v-9.34c-2.39.06-4.75.37-7.04.91ZM188.99,52.36c2.49-.6,5.06-.94,7.65-1v-7.96h-8.95c.08,3.22.55,6.27,1.3,8.96ZM196.64,31.85c-2.44-.06-4.85-.36-7.19-.9-1.02,3.03-1.66,6.62-1.76,10.45h8.95v-9.55ZM196.64,29.85v-7.75c-2.54.55-4.84,3.16-6.46,6.97,2.11.46,4.28.72,6.46.78ZM196.64,22.01h-.01s.01,0,.01,0h0ZM191.68,61.91s.03.01.04.01c-.02-.01-.03-.01-.04-.02h0ZM191.71,22.86c-.06.02-.12.04-.18.06-.28.08-.56.17-.84.28-.26.09-.53.19-.79.3-.49.2-.97.42-1.45.67-.18.09-.36.18-.54.28-.27.15-.54.3-.8.46-.17.1-.35.21-.52.33-.12.07-.23.15-.35.23-.27.18-.53.37-.79.56-.44.33-.88.69-1.3,1.07,1.3.58,2.64,1.07,4.03,1.46.95-2.32,2.15-4.25,3.53-5.7ZM183.03,56.63c.29.3.6.6.91.88.44.4.91.79,1.38,1.15.27.2.55.4.83.59.28.19.56.38.85.55.28.18.56.34.85.5.01,0,.02.01.03.02.27.14.54.28.82.42.04.02.07.03.11.05.23.11.46.22.7.32.1.05.21.09.31.13.2.09.4.17.61.24.41.16.83.3,1.25.42-1.65-1.73-3.03-4.16-4.05-7.09-1.59.48-3.14,1.09-4.6,1.82ZM187.47,30.44c-1.68-.49-3.3-1.1-4.85-1.84-3.25,3.52-5.12,8.01-5.35,12.8h8.43c.08-4.05.72-7.78,1.77-10.96ZM185.7,43.4h-8.42c.2,4.26,1.74,8.35,4.38,11.68,1.7-.88,3.51-1.62,5.38-2.19-.8-2.84-1.27-6.05-1.34-9.49ZM209.6,43.4c-.07,3.44-.54,6.65-1.34,9.49,1.87.57,3.68,1.31,5.38,2.19,2.65-3.33,4.19-7.42,4.39-11.68h-8.43ZM212.68,28.6c-1.53.73-3.16,1.34-4.86,1.83,1.06,3.18,1.7,6.92,1.78,10.97h8.44c-.23-4.79-2.11-9.28-5.36-12.8ZM182.62,28.6c-3.25,3.52-5.12,8.01-5.35,12.8h8.43c.08-4.05.72-7.78,1.77-10.96-1.68-.49-3.3-1.1-4.85-1.84ZM187.69,43.4c.08,3.22.55,6.27,1.3,8.96,2.49-.6,5.06-.94,7.65-1v-7.96h-8.95ZM177.28,43.4c.2,4.26,1.74,8.35,4.38,11.68,1.7-.88,3.51-1.62,5.38-2.19-.8-2.84-1.27-6.05-1.34-9.49h-8.42ZM187.63,54.81c-1.59.48-3.14,1.09-4.6,1.82.29.3.6.6.91.88.44.4.91.79,1.38,1.15.27.2.55.4.83.59.28.19.56.38.85.55.28.18.56.34.85.5.01,0,.02.01.03.02.27.14.54.28.82.42.04.02.07.03.11.05.23.11.46.22.7.32.1.05.21.09.31.13.2.09.4.17.61.24.41.16.83.3,1.25.42-1.65-1.73-3.03-4.16-4.05-7.09ZM191.53,22.92c-.28.08-.56.17-.84.28-.26.09-.53.19-.79.3-.49.2-.97.42-1.45.67-.18.09-.36.18-.54.28-.27.15-.54.3-.8.46-.17.1-.35.21-.52.33-.12.07-.23.15-.35.23-.27.18-.53.37-.79.56-.44.33-.88.69-1.3,1.07,1.3.58,2.64,1.07,4.03,1.46.95-2.32,2.15-4.25,3.53-5.7-.06.02-.12.04-.18.06ZM191.68,61.9h0s.03.02.04.02c-.02-.01-.03-.01-.04-.02ZM196.63,22.01s.01,0,.01,0h0s-.01,0-.01,0ZM190.18,29.07c2.11.46,4.28.72,6.46.78v-7.75c-2.54.55-4.84,3.16-6.46,6.97ZM189.45,30.95c-1.02,3.03-1.66,6.62-1.76,10.45h8.95v-9.55c-2.44-.06-4.85-.36-7.19-.9ZM189.6,54.27c1.64,4.6,4.18,7.81,7.04,8.43v-9.34c-2.39.06-4.75.37-7.04.91ZM196.64,62.7v.07c.24.02.47.02.7.02-.24-.01-.47-.04-.7-.09ZM197.5,62.8s.1.01.15.01.1,0,.15-.01h-.3ZM198.64,22.01c-.32-.01-.65-.02-.98-.02.33,0,.66.04.98.11v-.08s0,0,0,0h0ZM197.98,62.79c.22,0,.44,0,.66-.02v-.07c-.22.05-.44.08-.66.09ZM198.64,22.1v7.75c2.2-.05,4.38-.32,6.48-.79-1.63-3.81-3.93-6.42-6.48-6.96ZM198.64,53.36v9.34c2.86-.61,5.41-3.82,7.06-8.43-2.3-.54-4.68-.85-7.06-.91ZM198.64,43.4v7.96c2.58.06,5.16.4,7.66,1,.76-2.69,1.23-5.74,1.31-8.96h-8.97ZM205.85,30.95c-2.32.54-4.74.84-7.21.9v9.55h8.97c-.1-3.83-.74-7.42-1.76-10.45ZM208.68,25.22c-.17-.11-.33-.21-.5-.31-.26-.16-.53-.31-.8-.46-.25-.14-.5-.27-.76-.39-.41-.2-.82-.39-1.23-.56-.26-.11-.52-.21-.79-.3-.28-.11-.57-.21-.87-.29-.04-.02-.08-.03-.13-.04,1.38,1.44,2.57,3.37,3.52,5.68,1.4-.4,2.75-.88,4.03-1.45-.78-.7-1.61-1.33-2.47-1.88ZM207.67,54.81c-1.02,2.93-2.4,5.36-4.04,7.09.41-.12.82-.26,1.23-.42.2-.07.41-.15.61-.24.1-.04.2-.09.31-.13.24-.1.47-.21.7-.32.04-.02.07-.04.11-.05.28-.14.55-.28.82-.42.01-.02.03-.02.04-.03.29-.16.57-.32.85-.49.31-.19.62-.4.93-.61.41-.28.8-.58,1.19-.88.38-.31.76-.64,1.12-.97.25-.23.49-.47.73-.72-1.46-.72-3.01-1.33-4.6-1.81ZM209.6,43.4c-.07,3.44-.54,6.65-1.34,9.49,1.87.57,3.68,1.31,5.38,2.19,2.65-3.33,4.19-7.42,4.39-11.68h-8.43ZM212.68,28.6c-1.53.73-3.16,1.34-4.86,1.83,1.06,3.18,1.7,6.92,1.78,10.97h8.44c-.23-4.79-2.11-9.28-5.36-12.8ZM207.67,54.81c-1.02,2.93-2.4,5.36-4.04,7.09.41-.12.82-.26,1.23-.42.2-.07.41-.15.61-.24.1-.04.2-.09.31-.13.24-.1.47-.21.7-.32.04-.02.07-.04.11-.05.28-.14.55-.28.82-.42.01-.02.03-.02.04-.03.29-.16.57-.32.85-.49.31-.19.62-.4.93-.61.41-.28.8-.58,1.19-.88.38-.31.76-.64,1.12-.97.25-.23.49-.47.73-.72-1.46-.72-3.01-1.33-4.6-1.81ZM208.68,25.22c-.17-.11-.33-.21-.5-.31-.26-.16-.53-.31-.8-.46-.25-.14-.5-.27-.76-.39-.41-.2-.82-.39-1.23-.56-.26-.11-.52-.21-.79-.3-.28-.11-.57-.21-.87-.29-.04-.02-.08-.03-.13-.04,1.38,1.44,2.57,3.37,3.52,5.68,1.4-.4,2.75-.88,4.03-1.45-.78-.7-1.61-1.33-2.47-1.88ZM205.85,30.95c-2.32.54-4.74.84-7.21.9v9.55h8.97c-.1-3.83-.74-7.42-1.76-10.45ZM198.64,43.4v7.96c2.58.06,5.16.4,7.66,1,.76-2.69,1.23-5.74,1.31-8.96h-8.97ZM198.64,53.36v9.34c2.86-.61,5.41-3.82,7.06-8.43-2.3-.54-4.68-.85-7.06-.91ZM198.64,22.1v7.75c2.2-.05,4.38-.32,6.48-.79-1.63-3.81-3.93-6.42-6.48-6.96ZM197.98,62.79c.22,0,.44,0,.66-.02v-.07c-.22.05-.44.08-.66.09ZM198.64,22.01c-.32-.01-.65-.02-.98-.02.33,0,.66.04.98.11v-.08s0,0,0,0h0ZM197.5,62.8s.1.01.15.01.1,0,.15-.01h-.3ZM187.63,54.81c-1.59.48-3.14,1.09-4.6,1.82.29.3.6.6.91.88.44.4.91.79,1.38,1.15.27.2.55.4.83.59.28.19.56.38.85.55.28.18.56.34.85.5.01,0,.02.01.03.02.27.14.54.28.82.42.04.02.07.03.11.05.23.11.46.22.7.32.1.05.21.09.31.13.2.09.4.17.61.24.41.16.83.3,1.25.42-1.65-1.73-3.03-4.16-4.05-7.09ZM191.68,61.9h0s.03.02.04.02c-.02-.01-.03-.01-.04-.02ZM189.6,54.27c1.64,4.6,4.18,7.81,7.04,8.43v-9.34c-2.39.06-4.75.37-7.04.91ZM196.64,62.7v.07c.24.02.47.02.7.02-.24-.01-.47-.04-.7-.09ZM189.45,30.95c-1.02,3.03-1.66,6.62-1.76,10.45h8.95v-9.55c-2.44-.06-4.85-.36-7.19-.9ZM190.18,29.07c2.11.46,4.28.72,6.46.78v-7.75c-2.54.55-4.84,3.16-6.46,6.97ZM196.63,22.01s.01,0,.01,0h0s-.01,0-.01,0ZM191.53,22.92c-.28.08-.56.17-.84.28-.26.09-.53.19-.79.3-.49.2-.97.42-1.45.67-.18.09-.36.18-.54.28-.27.15-.54.3-.8.46-.17.1-.35.21-.52.33-.12.07-.23.15-.35.23-.27.18-.53.37-.79.56-.44.33-.88.69-1.3,1.07,1.3.58,2.64,1.07,4.03,1.46.95-2.32,2.15-4.25,3.53-5.7-.06.02-.12.04-.18.06ZM187.69,43.4c.08,3.22.55,6.27,1.3,8.96,2.49-.6,5.06-.94,7.65-1v-7.96h-8.95ZM177.28,43.4c.2,4.26,1.74,8.35,4.38,11.68,1.7-.88,3.51-1.62,5.38-2.19-.8-2.84-1.27-6.05-1.34-9.49h-8.42ZM182.62,28.6c-3.25,3.52-5.12,8.01-5.35,12.8h8.43c.08-4.05.72-7.78,1.77-10.96-1.68-.49-3.3-1.1-4.85-1.84ZM209.6,43.4c-.07,3.44-.54,6.65-1.34,9.49,1.87.57,3.68,1.31,5.38,2.19,2.65-3.33,4.19-7.42,4.39-11.68h-8.43ZM212.68,28.6c-1.53.73-3.16,1.34-4.86,1.83,1.06,3.18,1.7,6.92,1.78,10.97h8.44c-.23-4.79-2.11-9.28-5.36-12.8ZM182.62,28.6c-3.25,3.52-5.12,8.01-5.35,12.8h8.43c.08-4.05.72-7.78,1.77-10.96-1.68-.49-3.3-1.1-4.85-1.84ZM198.64,43.4v7.96c2.58.06,5.16.4,7.66,1,.76-2.69,1.23-5.74,1.31-8.96h-8.97ZM187.69,43.4c.08,3.22.55,6.27,1.3,8.96,2.49-.6,5.06-.94,7.65-1v-7.96h-8.95ZM177.28,43.4c.2,4.26,1.74,8.35,4.38,11.68,1.7-.88,3.51-1.62,5.38-2.19-.8-2.84-1.27-6.05-1.34-9.49h-8.42ZM191.53,22.92c-.28.08-.56.17-.84.28-.26.09-.53.19-.79.3-.49.2-.97.42-1.45.67-.18.09-.36.18-.54.28-.27.15-.54.3-.8.46-.17.1-.35.21-.52.33-.12.07-.23.15-.35.23-.27.18-.53.37-.79.56-.44.33-.88.69-1.3,1.07,1.3.58,2.64,1.07,4.03,1.46.95-2.32,2.15-4.25,3.53-5.7-.06.02-.12.04-.18.06ZM196.63,22.01s.01,0,.01,0h0s-.01,0-.01,0ZM190.18,29.07c2.11.46,4.28.72,6.46.78v-7.75c-2.54.55-4.84,3.16-6.46,6.97ZM189.45,30.95c-1.02,3.03-1.66,6.62-1.76,10.45h8.95v-9.55c-2.44-.06-4.85-.36-7.19-.9ZM198.64,22.01c-.32-.01-.65-.02-.98-.02.33,0,.66.04.98.11v-.08s0,0,0,0h0ZM198.64,22.1v7.75c2.2-.05,4.38-.32,6.48-.79-1.63-3.81-3.93-6.42-6.48-6.96ZM198.64,53.36v9.34c2.86-.61,5.41-3.82,7.06-8.43-2.3-.54-4.68-.85-7.06-.91ZM197.98,62.79c.22,0,.44,0,.66-.02v-.07c-.22.05-.44.08-.66.09ZM197.5,62.8s.1.01.15.01.1,0,.15-.01h-.3ZM187.63,54.81c-1.59.48-3.14,1.09-4.6,1.82.29.3.6.6.91.88.44.4.91.79,1.38,1.15.27.2.55.4.83.59.28.19.56.38.85.55.28.18.56.34.85.5.01,0,.02.01.03.02.27.14.54.28.82.42.04.02.07.03.11.05.23.11.46.22.7.32.1.05.21.09.31.13.2.09.4.17.61.24.41.16.83.3,1.25.42-1.65-1.73-3.03-4.16-4.05-7.09ZM191.68,61.9h0s.03.02.04.02c-.02-.01-.03-.01-.04-.02ZM189.6,54.27c1.64,4.6,4.18,7.81,7.04,8.43v-9.34c-2.39.06-4.75.37-7.04.91ZM196.64,62.7v.07c.24.02.47.02.7.02-.24-.01-.47-.04-.7-.09ZM205.85,30.95c-2.32.54-4.74.84-7.21.9v9.55h8.97c-.1-3.83-.74-7.42-1.76-10.45ZM208.68,25.22c-.17-.11-.33-.21-.5-.31-.26-.16-.53-.31-.8-.46-.25-.14-.5-.27-.76-.39-.41-.2-.82-.39-1.23-.56-.26-.11-.52-.21-.79-.3-.28-.11-.57-.21-.87-.29-.04-.02-.08-.03-.13-.04,1.38,1.44,2.57,3.37,3.52,5.68,1.4-.4,2.75-.88,4.03-1.45-.78-.7-1.61-1.33-2.47-1.88ZM207.67,54.81c-1.02,2.93-2.4,5.36-4.04,7.09.41-.12.82-.26,1.23-.42.2-.07.41-.15.61-.24.1-.04.2-.09.31-.13.24-.1.47-.21.7-.32.04-.02.07-.04.11-.05.28-.14.55-.28.82-.42.01-.02.03-.02.04-.03.29-.16.57-.32.85-.49.31-.19.62-.4.93-.61.41-.28.8-.58,1.19-.88.38-.31.76-.64,1.12-.97.25-.23.49-.47.73-.72-1.46-.72-3.01-1.33-4.6-1.81ZM209.6,43.4c-.07,3.44-.54,6.65-1.34,9.49,1.87.57,3.68,1.31,5.38,2.19,2.65-3.33,4.19-7.42,4.39-11.68h-8.43ZM212.68,28.6c-1.53.73-3.16,1.34-4.86,1.83,1.06,3.18,1.7,6.92,1.78,10.97h8.44c-.23-4.79-2.11-9.28-5.36-12.8ZM198.64,43.4v7.96c2.58.06,5.16.4,7.66,1,.76-2.69,1.23-5.74,1.31-8.96h-8.97ZM187.69,43.4c.08,3.22.55,6.27,1.3,8.96,2.49-.6,5.06-.94,7.65-1v-7.96h-8.95ZM177.28,43.4c.2,4.26,1.74,8.35,4.38,11.68,1.7-.88,3.51-1.62,5.38-2.19-.8-2.84-1.27-6.05-1.34-9.49h-8.42ZM209.6,43.4c-.07,3.44-.54,6.65-1.34,9.49,1.87.57,3.68,1.31,5.38,2.19,2.65-3.33,4.19-7.42,4.39-11.68h-8.43ZM208.68,25.22c-.17-.11-.33-.21-.5-.31-.26-.16-.53-.31-.8-.46-.25-.14-.5-.27-.76-.39-.41-.2-.82-.39-1.23-.56-.26-.11-.52-.21-.79-.3-.28-.11-.57-.21-.87-.29-.04-.02-.08-.03-.13-.04,1.38,1.44,2.57,3.37,3.52,5.68,1.4-.4,2.75-.88,4.03-1.45-.78-.7-1.61-1.33-2.47-1.88ZM198.64,53.36v9.34c2.86-.61,5.41-3.82,7.06-8.43-2.3-.54-4.68-.85-7.06-.91ZM197.98,62.79c.22,0,.44,0,.66-.02v-.07c-.22.05-.44.08-.66.09ZM197.5,62.8s.1.01.15.01.1,0,.15-.01h-.3ZM187.63,54.81c-1.59.48-3.14,1.09-4.6,1.82.29.3.6.6.91.88.44.4.91.79,1.38,1.15.27.2.55.4.83.59.28.19.56.38.85.55.28.18.56.34.85.5.01,0,.02.01.03.02.27.14.54.28.82.42.04.02.07.03.11.05.23.11.46.22.7.32.1.05.21.09.31.13.2.09.4.17.61.24.41.16.83.3,1.25.42-1.65-1.73-3.03-4.16-4.05-7.09ZM191.68,61.9h0s.03.02.04.02c-.02-.01-.03-.01-.04-.02ZM189.6,54.27c1.64,4.6,4.18,7.81,7.04,8.43v-9.34c-2.39.06-4.75.37-7.04.91ZM196.64,62.7v.07c.24.02.47.02.7.02-.24-.01-.47-.04-.7-.09ZM207.67,54.81c-1.02,2.93-2.4,5.36-4.04,7.09.41-.12.82-.26,1.23-.42.2-.07.41-.15.61-.24.1-.04.2-.09.31-.13.24-.1.47-.21.7-.32.04-.02.07-.04.11-.05.28-.14.55-.28.82-.42.01-.02.03-.02.04-.03.29-.16.57-.32.85-.49.31-.19.62-.4.93-.61.41-.28.8-.58,1.19-.88.38-.31.76-.64,1.12-.97.25-.23.49-.47.73-.72-1.46-.72-3.01-1.33-4.6-1.81ZM205.85,30.95c-2.32.54-4.74.84-7.21.9v9.55h8.97c-.1-3.83-.74-7.42-1.76-10.45ZM198.64,22.1v7.75c2.2-.05,4.38-.32,6.48-.79-1.63-3.81-3.93-6.42-6.48-6.96ZM198.64,22.01c-.32-.01-.65-.02-.98-.02.33,0,.66.04.98.11v-.08s0,0,0,0h0ZM189.45,30.95c-1.02,3.03-1.66,6.62-1.76,10.45h8.95v-9.55c-2.44-.06-4.85-.36-7.19-.9ZM190.18,29.07c2.11.46,4.28.72,6.46.78v-7.75c-2.54.55-4.84,3.16-6.46,6.97ZM196.63,22.01s.01,0,.01,0h0s-.01,0-.01,0ZM191.53,22.92c-.28.08-.56.17-.84.28-.26.09-.53.19-.79.3-.49.2-.97.42-1.45.67-.18.09-.36.18-.54.28-.27.15-.54.3-.8.46-.17.1-.35.21-.52.33-.12.07-.23.15-.35.23-.27.18-.53.37-.79.56-.44.33-.88.69-1.3,1.07,1.3.58,2.64,1.07,4.03,1.46.95-2.32,2.15-4.25,3.53-5.7-.06.02-.12.04-.18.06ZM182.62,28.6c-3.25,3.52-5.12,8.01-5.35,12.8h8.43c.08-4.05.72-7.78,1.77-10.96-1.68-.49-3.3-1.1-4.85-1.84ZM212.68,28.6c-1.53.73-3.16,1.34-4.86,1.83,1.06,3.18,1.7,6.92,1.78,10.97h8.44c-.23-4.79-2.11-9.28-5.36-12.8ZM182.62,28.6c-3.25,3.52-5.12,8.01-5.35,12.8h8.43c.08-4.05.72-7.78,1.77-10.96-1.68-.49-3.3-1.1-4.85-1.84ZM191.53,22.92c-.28.08-.56.17-.84.28-.26.09-.53.19-.79.3-.49.2-.97.42-1.45.67-.18.09-.36.18-.54.28-.27.15-.54.3-.8.46-.17.1-.35.21-.52.33-.12.07-.23.15-.35.23-.27.18-.53.37-.79.56-.44.33-.88.69-1.3,1.07,1.3.58,2.64,1.07,4.03,1.46.95-2.32,2.15-4.25,3.53-5.7-.06.02-.12.04-.18.06ZM196.63,22.01s.01,0,.01,0h0s-.01,0-.01,0ZM190.18,29.07c2.11.46,4.28.72,6.46.78v-7.75c-2.54.55-4.84,3.16-6.46,6.97ZM189.45,30.95c-1.02,3.03-1.66,6.62-1.76,10.45h8.95v-9.55c-2.44-.06-4.85-.36-7.19-.9ZM198.64,22.01c-.32-.01-.65-.02-.98-.02.33,0,.66.04.98.11v-.08s0,0,0,0h0ZM198.64,22.1v7.75c2.2-.05,4.38-.32,6.48-.79-1.63-3.81-3.93-6.42-6.48-6.96ZM205.85,30.95c-2.32.54-4.74.84-7.21.9v9.55h8.97c-.1-3.83-.74-7.42-1.76-10.45ZM198.64,53.36v9.34c2.86-.61,5.41-3.82,7.06-8.43-2.3-.54-4.68-.85-7.06-.91ZM197.98,62.79c.22,0,.44,0,.66-.02v-.07c-.22.05-.44.08-.66.09ZM187.63,54.81c-1.59.48-3.14,1.09-4.6,1.82.29.3.6.6.91.88.44.4.91.79,1.38,1.15.27.2.55.4.83.59.28.19.56.38.85.55.28.18.56.34.85.5.01,0,.02.01.03.02.27.14.54.28.82.42.04.02.07.03.11.05.23.11.46.22.7.32.1.05.21.09.31.13.2.09.4.17.61.24.41.16.83.3,1.25.42-1.65-1.73-3.03-4.16-4.05-7.09ZM189.6,54.27c1.64,4.6,4.18,7.81,7.04,8.43v-9.34c-2.39.06-4.75.37-7.04.91ZM196.64,62.7v.07c.24.02.47.02.7.02-.24-.01-.47-.04-.7-.09ZM207.67,54.81c-1.02,2.93-2.4,5.36-4.04,7.09.41-.12.82-.26,1.23-.42.2-.07.41-.15.61-.24.1-.04.2-.09.31-.13.24-.1.47-.21.7-.32.04-.02.07-.04.11-.05.28-.14.55-.28.82-.42.01-.02.03-.02.04-.03.29-.16.57-.32.85-.49.31-.19.62-.4.93-.61.41-.28.8-.58,1.19-.88.38-.31.76-.64,1.12-.97.25-.23.49-.47.73-.72-1.46-.72-3.01-1.33-4.6-1.81ZM208.68,25.22c-.17-.11-.33-.21-.5-.31-.26-.16-.53-.31-.8-.46-.25-.14-.5-.27-.76-.39-.41-.2-.82-.39-1.23-.56-.26-.11-.52-.21-.79-.3-.28-.11-.57-.21-.87-.29-.04-.02-.08-.03-.13-.04,1.38,1.44,2.57,3.37,3.52,5.68,1.4-.4,2.75-.88,4.03-1.45-.78-.7-1.61-1.33-2.47-1.88ZM198.64,43.4v7.96c2.58.06,5.16.4,7.66,1,.76-2.69,1.23-5.74,1.31-8.96h-8.97ZM187.69,43.4c.08,3.22.55,6.27,1.3,8.96,2.49-.6,5.06-.94,7.65-1v-7.96h-8.95ZM177.28,43.4c.2,4.26,1.74,8.35,4.38,11.68,1.7-.88,3.51-1.62,5.38-2.19-.8-2.84-1.27-6.05-1.34-9.49h-8.42ZM209.6,43.4c-.07,3.44-.54,6.65-1.34,9.49,1.87.57,3.68,1.31,5.38,2.19,2.65-3.33,4.19-7.42,4.39-11.68h-8.43ZM212.68,28.6c-1.53.73-3.16,1.34-4.86,1.83,1.06,3.18,1.7,6.92,1.78,10.97h8.44c-.23-4.79-2.11-9.28-5.36-12.8ZM208.68,25.22c-.17-.11-.33-.21-.5-.31-.26-.16-.53-.31-.8-.46-.25-.14-.5-.27-.76-.39-.41-.2-.82-.39-1.23-.56-.26-.11-.52-.21-.79-.3-.28-.11-.57-.21-.87-.29-.04-.02-.08-.03-.13-.04,1.38,1.44,2.57,3.37,3.52,5.68,1.4-.4,2.75-.88,4.03-1.45-.78-.7-1.61-1.33-2.47-1.88ZM205.85,30.95c-2.32.54-4.74.84-7.21.9v9.55h8.97c-.1-3.83-.74-7.42-1.76-10.45ZM198.64,22.1v7.75c2.2-.05,4.38-.32,6.48-.79-1.63-3.81-3.93-6.42-6.48-6.96ZM198.64,22.01c-.32-.01-.65-.02-.98-.02.33,0,.66.04.98.11v-.08s0,0,0,0h0ZM189.45,30.95c-1.02,3.03-1.66,6.62-1.76,10.45h8.95v-9.55c-2.44-.06-4.85-.36-7.19-.9ZM190.18,29.07c2.11.46,4.28.72,6.46.78v-7.75c-2.54.55-4.84,3.16-6.46,6.97ZM196.63,22.01s.01,0,.01,0h0s-.01,0-.01,0ZM191.53,22.92c-.28.08-.56.17-.84.28-.26.09-.53.19-.79.3-.49.2-.97.42-1.45.67-.18.09-.36.18-.54.28-.27.15-.54.3-.8.46-.17.1-.35.21-.52.33-.12.07-.23.15-.35.23-.27.18-.53.37-.79.56-.44.33-.88.69-1.3,1.07,1.3.58,2.64,1.07,4.03,1.46.95-2.32,2.15-4.25,3.53-5.7-.06.02-.12.04-.18.06ZM182.62,28.6c-3.25,3.52-5.12,8.01-5.35,12.8h8.43c.08-4.05.72-7.78,1.77-10.96-1.68-.49-3.3-1.1-4.85-1.84ZM212.68,28.6c-1.53.73-3.16,1.34-4.86,1.83,1.06,3.18,1.7,6.92,1.78,10.97h8.44c-.23-4.79-2.11-9.28-5.36-12.8ZM182.62,28.6c-3.25,3.52-5.12,8.01-5.35,12.8h8.43c.08-4.05.72-7.78,1.77-10.96-1.68-.49-3.3-1.1-4.85-1.84ZM191.53,22.92c-.28.08-.56.17-.84.28-.26.09-.53.19-.79.3-.49.2-.97.42-1.45.67-.18.09-.36.18-.54.28-.27.15-.54.3-.8.46-.17.1-.35.21-.52.33-.12.07-.23.15-.35.23-.27.18-.53.37-.79.56-.44.33-.88.69-1.3,1.07,1.3.58,2.64,1.07,4.03,1.46.95-2.32,2.15-4.25,3.53-5.7-.06.02-.12.04-.18.06ZM196.63,22.01s.01,0,.01,0h0s-.01,0-.01,0ZM190.18,29.07c2.11.46,4.28.72,6.46.78v-7.75c-2.54.55-4.84,3.16-6.46,6.97ZM205.85,30.95c-2.32.54-4.74.84-7.21.9v9.55h8.97c-.1-3.83-.74-7.42-1.76-10.45ZM189.45,30.95c-1.02,3.03-1.66,6.62-1.76,10.45h8.95v-9.55c-2.44-.06-4.85-.36-7.19-.9ZM198.64,22.01c-.32-.01-.65-.02-.98-.02.33,0,.66.04.98.11v-.08s0,0,0,0h0ZM198.64,22.1v7.75c2.2-.05,4.38-.32,6.48-.79-1.63-3.81-3.93-6.42-6.48-6.96ZM208.68,25.22c-.17-.11-.33-.21-.5-.31-.26-.16-.53-.31-.8-.46-.25-.14-.5-.27-.76-.39-.41-.2-.82-.39-1.23-.56-.26-.11-.52-.21-.79-.3-.28-.11-.57-.21-.87-.29-.04-.02-.08-.03-.13-.04,1.38,1.44,2.57,3.37,3.52,5.68,1.4-.4,2.75-.88,4.03-1.45-.78-.7-1.61-1.33-2.47-1.88ZM198.64,53.36v9.34c2.86-.61,5.41-3.82,7.06-8.43-2.3-.54-4.68-.85-7.06-.91ZM197.98,62.79c.22,0,.44,0,.66-.02v-.07c-.22.05-.44.08-.66.09ZM187.63,54.81c-1.59.48-3.14,1.09-4.6,1.82.29.3.6.6.91.88.44.4.91.79,1.38,1.15.27.2.55.4.83.59.28.19.56.38.85.55.28.18.56.34.85.5.01,0,.02.01.03.02.27.14.54.28.82.42.04.02.07.03.11.05.23.11.46.22.7.32.1.05.21.09.31.13.2.09.4.17.61.24.41.16.83.3,1.25.42-1.65-1.73-3.03-4.16-4.05-7.09ZM189.6,54.27c1.64,4.6,4.18,7.81,7.04,8.43v-9.34c-2.39.06-4.75.37-7.04.91ZM196.64,62.7v.07c.24.02.47.02.7.02-.24-.01-.47-.04-.7-.09ZM207.67,54.81c-1.02,2.93-2.4,5.36-4.04,7.09.41-.12.82-.26,1.23-.42.2-.07.41-.15.61-.24.1-.04.2-.09.31-.13.24-.1.47-.21.7-.32.04-.02.07-.04.11-.05.28-.14.55-.28.82-.42.01-.02.03-.02.04-.03.29-.16.57-.32.85-.49.31-.19.62-.4.93-.61.41-.28.8-.58,1.19-.88.38-.31.76-.64,1.12-.97.25-.23.49-.47.73-.72-1.46-.72-3.01-1.33-4.6-1.81ZM198.64,43.4v7.96c2.58.06,5.16.4,7.66,1,.76-2.69,1.23-5.74,1.31-8.96h-8.97ZM187.69,43.4c.08,3.22.55,6.27,1.3,8.96,2.49-.6,5.06-.94,7.65-1v-7.96h-8.95ZM177.28,43.4c.2,4.26,1.74,8.35,4.38,11.68,1.7-.88,3.51-1.62,5.38-2.19-.8-2.84-1.27-6.05-1.34-9.49h-8.42ZM209.6,43.4c-.07,3.44-.54,6.65-1.34,9.49,1.87.57,3.68,1.31,5.38,2.19,2.65-3.33,4.19-7.42,4.39-11.68h-8.43ZM212.68,28.6c-1.53.73-3.16,1.34-4.86,1.83,1.06,3.18,1.7,6.92,1.78,10.97h8.44c-.23-4.79-2.11-9.28-5.36-12.8ZM208.68,25.22c-.17-.11-.33-.21-.5-.31-.26-.16-.53-.31-.8-.46-.25-.14-.5-.27-.76-.39-.41-.2-.82-.39-1.23-.56-.26-.11-.52-.21-.79-.3-.28-.11-.57-.21-.87-.29-.04-.02-.08-.03-.13-.04,1.38,1.44,2.57,3.37,3.52,5.68,1.4-.4,2.75-.88,4.03-1.45-.78-.7-1.61-1.33-2.47-1.88ZM182.62,28.6c-3.25,3.52-5.12,8.01-5.35,12.8h8.43c.08-4.05.72-7.78,1.77-10.96-1.68-.49-3.3-1.1-4.85-1.84ZM205.85,30.95c-2.32.54-4.74.84-7.21.9v9.55h8.97c-.1-3.83-.74-7.42-1.76-10.45ZM189.45,30.95c-1.02,3.03-1.66,6.62-1.76,10.45h8.95v-9.55c-2.44-.06-4.85-.36-7.19-.9ZM198.64,22.1v7.75c2.2-.05,4.38-.32,6.48-.79-1.63-3.81-3.93-6.42-6.48-6.96ZM198.64,22.01c-.32-.01-.65-.02-.98-.02.33,0,.66.04.98.11v-.08s0,0,0,0h0ZM190.18,29.07c2.11.46,4.28.72,6.46.78v-7.75c-2.54.55-4.84,3.16-6.46,6.97ZM196.63,22.01s.01,0,.01,0h0s-.01,0-.01,0ZM191.53,22.92c-.28.08-.56.17-.84.28-.26.09-.53.19-.79.3-.49.2-.97.42-1.45.67-.18.09-.36.18-.54.28-.27.15-.54.3-.8.46-.17.1-.35.21-.52.33-.12.07-.23.15-.35.23-.27.18-.53.37-.79.56-.44.33-.88.69-1.3,1.07,1.3.58,2.64,1.07,4.03,1.46.95-2.32,2.15-4.25,3.53-5.7-.06.02-.12.04-.18.06ZM191.53,22.92c-.28.08-.56.17-.84.28-.26.09-.53.19-.79.3-.49.2-.97.42-1.45.67-.18.09-.36.18-.54.28-.27.15-.54.3-.8.46-.17.1-.35.21-.52.33-.12.07-.23.15-.35.23-.27.18-.53.37-.79.56-.44.33-.88.69-1.3,1.07,1.3.58,2.64,1.07,4.03,1.46.95-2.32,2.15-4.25,3.53-5.7-.06.02-.12.04-.18.06ZM196.63,22.01s.01,0,.01,0h0s-.01,0-.01,0ZM190.18,29.07c2.11.46,4.28.72,6.46.78v-7.75c-2.54.55-4.84,3.16-6.46,6.97ZM198.64,22.01c-.32-.01-.65-.02-.98-.02.33,0,.66.04.98.11v-.08s0,0,0,0h0ZM198.64,22.1v7.75c2.2-.05,4.38-.32,6.48-.79-1.63-3.81-3.93-6.42-6.48-6.96ZM182.62,28.6c-3.25,3.52-5.12,8.01-5.35,12.8h8.43c.08-4.05.72-7.78,1.77-10.96-1.68-.49-3.3-1.1-4.85-1.84ZM205.85,30.95c-2.32.54-4.74.84-7.21.9v9.55h8.97c-.1-3.83-.74-7.42-1.76-10.45ZM189.45,30.95c-1.02,3.03-1.66,6.62-1.76,10.45h8.95v-9.55c-2.44-.06-4.85-.36-7.19-.9ZM208.68,25.22c-.17-.11-.33-.21-.5-.31-.26-.16-.53-.31-.8-.46-.25-.14-.5-.27-.76-.39-.41-.2-.82-.39-1.23-.56-.26-.11-.52-.21-.79-.3-.28-.11-.57-.21-.87-.29-.04-.02-.08-.03-.13-.04,1.38,1.44,2.57,3.37,3.52,5.68,1.4-.4,2.75-.88,4.03-1.45-.78-.7-1.61-1.33-2.47-1.88ZM198.64,22.01c-.32-.01-.65-.02-.98-.02.33,0,.66.04.98.11v-.08s0,0,0,0h0ZM198.64,22.1v7.75c2.2-.05,4.38-.32,6.48-.79-1.63-3.81-3.93-6.42-6.48-6.96ZM208.68,25.22c-.17-.11-.33-.21-.5-.31-.26-.16-.53-.31-.8-.46-.25-.14-.5-.27-.76-.39-.41-.2-.82-.39-1.23-.56-.26-.11-.52-.21-.79-.3-.28-.11-.57-.21-.87-.29-.04-.02-.08-.03-.13-.04,1.38,1.44,2.57,3.37,3.52,5.68,1.4-.4,2.75-.88,4.03-1.45-.78-.7-1.61-1.33-2.47-1.88ZM190.18,29.07c2.11.46,4.28.72,6.46.78v-7.75c-2.54.55-4.84,3.16-6.46,6.97ZM196.63,22.01s.01,0,.01,0h0s-.01,0-.01,0ZM191.53,22.92c-.28.08-.56.17-.84.28-.26.09-.53.19-.79.3-.49.2-.97.42-1.45.67-.18.09-.36.18-.54.28-.27.15-.54.3-.8.46-.17.1-.35.21-.52.33-.12.07-.23.15-.35.23-.27.18-.53.37-.79.56-.44.33-.88.69-1.3,1.07,1.3.58,2.64,1.07,4.03,1.46.95-2.32,2.15-4.25,3.53-5.7-.06.02-.12.04-.18.06ZM191.53,22.92c-.28.08-.56.17-.84.28-.26.09-.53.19-.79.3-.49.2-.97.42-1.45.67-.18.09-.36.18-.54.28-.27.15-.54.3-.8.46-.17.1-.35.21-.52.33-.12.07-.23.15-.35.23-.27.18-.53.37-.79.56-.44.33-.88.69-1.3,1.07,1.3.58,2.64,1.07,4.03,1.46.95-2.32,2.15-4.25,3.53-5.7-.06.02-.12.04-.18.06ZM196.63,22.01s.01,0,.01,0h0s-.01,0-.01,0ZM198.64,22.01c-.32-.01-.65-.02-.98-.02.33,0,.66.04.98.11v-.08s0,0,0,0h0ZM198.64,22.1v7.75c2.2-.05,4.38-.32,6.48-.79-1.63-3.81-3.93-6.42-6.48-6.96ZM189.45,30.95c-1.02,3.03-1.66,6.62-1.76,10.45h8.95v-9.55c-2.44-.06-4.85-.36-7.19-.9ZM190.18,29.07c2.11.46,4.28.72,6.46.78v-7.75c-2.54.55-4.84,3.16-6.46,6.97Z"/>
      <g>
        <path class="cls-2" d="M196.63,22.01s.01,0,.01,0h0s-.01,0-.01,0ZM198.64,22.01c-.32-.01-.65-.02-.98-.02.33,0,.66.01.98.03t0,0h0ZM197.5,62.8s.1.01.15.01.1,0,.15-.01h-.3ZM191.68,61.9h0s.03.02.04.02c-.02-.01-.03-.01-.04-.02Z"/>
        <path class="cls-2" d="M213.62,26.67c.32.32.63.66.93,1l.03-.02-.96-.98ZM180.73,27.65l.03.02c.3-.34.61-.68.93-1l-.96.98Z"/>
        <path class="cls-2" d="M179.88,56.03l-.03.02.4.47c-.13-.16-.25-.33-.37-.49ZM197.5,62.8s.1.01.15.01.1,0,.15-.01h-.3ZM215.42,56.04c-.12.16-.24.32-.37.48l.4-.46-.03-.02Z"/>
        <path class="cls-2" d="M196.63,22.01s.01,0,.01,0h0s-.01,0-.01,0ZM197.98,62.79c.22,0,.44,0,.66-.02v-.07c-.22.05-.44.08-.66.09ZM197.64,64.8h-.2c.07.01.14.01.21.01.15,0,.29,0,.43-.02-.14.01-.29.01-.44.01ZM191.68,61.9h0s.03.02.04.02c-.02-.01-.03-.01-.04-.02ZM196.64,62.7v.07c.24.02.47.02.7.02-.24-.01-.47-.04-.7-.09ZM198.64,22.01c-.32-.01-.65-.02-.98-.02.33,0,.66.04.98.11v-.08s0,0,0,0h0Z"/>
        <g>
          <path class="cls-2" d="M198.64,22.01v.09c-.32-.07-.65-.11-.98-.11.33,0,.66.01.98.02Z"/>
          <path class="cls-2" d="M197.34,62.79c-.23,0-.46,0-.7-.02v-.07c.23.05.46.08.7.09Z"/>
          <path class="cls-2" d="M197.8,62.8s-.1.01-.15.01-.1,0-.15-.01h.3Z"/>
          <path class="cls-2" d="M198.64,62.7v.07c-.22.02-.44.02-.66.02.22-.01.44-.04.66-.09Z"/>
        </g>
      </g>
    </g>
  </g>
</svg>