<?xml version="1.0" encoding="UTF-8"?>
<svg id="Layer_2" data-name="Layer 2" xmlns="http://www.w3.org/2000/svg" viewBox="0 0 286.73 134.12">
  <defs>
    <style>
      .cls-1 {
        fill: #c84333;
      }

      .cls-2 {
        fill: #fff;
      }

      .cls-3 {
        fill: #2c3684;
      }

      .cls-4 {
        fill: none;
        stroke: #b7b7b7;
        stroke-miterlimit: 10;
        stroke-width: 3.6px;
      }
    </style>
  </defs>
  <g id="Layer_1-2" data-name="Layer 1">
    <g>
      <path class="cls-3" d="M38.94,0h205.74C267.89,0,286.73,18.84,286.73,42.05v50.03c0,23.21-18.84,42.05-42.05,42.05H0V38.94C0,17.45,17.45,0,38.94,0Z"/>
      <path class="cls-1" d="M36.21,0h214.55C270.46,0,286.45,15.99,286.45,35.69v47.1H0v-46.57C0,16.23,16.23,0,36.21,0Z"/>
      <g>
        <path class="cls-2" d="M46.05,14.71c4.13,0,7.8.74,11,2.22,3.2,1.48,5.9,3.52,8.1,6.12,2.2,2.59,3.86,5.61,5,9.05,1.14,3.44,1.71,7.12,1.71,11.04s-.57,7.61-1.71,11.08c-1.14,3.47-2.81,6.49-5,9.05-2.2,2.57-4.9,4.59-8.1,6.08-3.2,1.48-6.87,2.22-11,2.22s-7.78-.74-10.96-2.22c-3.18-1.48-5.86-3.51-8.06-6.08-2.2-2.57-3.87-5.59-5-9.05-1.14-3.47-1.71-7.16-1.71-11.08s.57-7.61,1.71-11.08c1.14-3.47,2.81-6.49,5-9.05,2.2-2.57,4.88-4.59,8.06-6.08,3.18-1.48,6.83-2.22,10.96-2.22ZM46.05,55.69c1.59,0,2.96-.33,4.13-.99,1.16-.66,2.13-1.56,2.9-2.7.77-1.14,1.32-2.46,1.67-3.97.34-1.51.52-3.14.52-4.88s-.17-3.38-.52-4.88c-.35-1.51-.9-2.83-1.67-3.97-.77-1.14-1.73-2.04-2.9-2.7-1.17-.66-2.54-.99-4.13-.99s-2.97.33-4.13.99c-1.17.66-2.12,1.56-2.86,2.7-.74,1.14-1.3,2.46-1.67,3.97-.37,1.51-.56,3.14-.56,4.88s.19,3.38.56,4.88c.37,1.51.93,2.83,1.67,3.97.74,1.14,1.69,2.04,2.86,2.7,1.16.66,2.54.99,4.13.99Z"/>
        <path class="cls-2" d="M101.8,15.43c3.49,0,6.41.89,8.74,2.66,2.33,1.77,4.08,3.98,5.24,6.63,1.16,2.65,1.75,5.52,1.75,8.62s-.58,5.97-1.75,8.62c-1.17,2.65-2.91,4.86-5.24,6.63-2.33,1.77-5.24,2.66-8.74,2.66h-10.32v19.78h-16.52V15.43h26.84ZM96.8,37.9c1.48,0,2.59-.52,3.34-1.55.74-1.03,1.11-2.16,1.11-3.38s-.37-2.34-1.11-3.38c-.74-1.03-1.85-1.55-3.34-1.55h-5.32v9.85h5.32Z"/>
        <path class="cls-2" d="M135.55,31.47c0,.79.46,1.63,1.39,2.5.93.87,2.08,1.81,3.45,2.82,1.38,1.01,2.87,2.1,4.49,3.3,1.61,1.19,3.11,2.52,4.49,3.97,1.38,1.46,2.53,3.07,3.45,4.84.93,1.77,1.39,3.72,1.39,5.84,0,2.22-.36,4.36-1.07,6.39-.71,2.04-1.85,3.84-3.42,5.4-1.56,1.56-3.56,2.79-6,3.69-2.44.9-5.37,1.35-8.82,1.35-2.91,0-5.51-.21-7.78-.64-2.28-.42-4.2-.89-5.76-1.39-1.56-.5-2.77-.98-3.61-1.43-.85-.45-1.32-.7-1.43-.75l4.53-14.85c.42.32,1.02.73,1.79,1.23.77.5,1.67.98,2.7,1.43,1.03.45,2.18.85,3.45,1.19,1.27.34,2.62.52,4.05.52,1.75,0,2.98-.33,3.69-.99.71-.66,1.07-1.36,1.07-2.1,0-1.06-.46-2.05-1.39-2.98-.93-.93-2.08-1.88-3.46-2.86-1.38-.98-2.89-2.03-4.53-3.14-1.64-1.11-3.15-2.37-4.53-3.77-1.38-1.4-2.53-2.98-3.45-4.73-.93-1.75-1.39-3.76-1.39-6.04,0-4.82,1.64-8.62,4.92-11.4,3.28-2.78,7.97-4.17,14.06-4.17,2.38,0,4.54.17,6.47.52,1.93.34,3.59.73,4.96,1.15,1.64.53,3.12,1.11,4.45,1.75l-3.49,13.9c-1.11-.53-2.28-1-3.49-1.43-1.06-.32-2.24-.62-3.53-.91-1.3-.29-2.63-.44-4.01-.44-1.48,0-2.46.27-2.94.79s-.71,1.01-.71,1.43Z"/>
      </g>
      <g>
        <path class="cls-2" d="M24.92,124.57v-32.91h3.76c5.12,7.9,17.16,26.28,19.23,29.85h.05c-.28-4.75-.23-9.59-.23-14.95v-14.9h2.59v32.91h-3.48c-4.89-7.62-17.11-26.75-19.46-30.37h-.05c.23,4.33.19,9.12.19,15.09v15.28h-2.59Z"/>
        <path class="cls-2" d="M79.32,108.4h-16.78v13.82h18.38l-.38,2.35h-20.54v-32.91h20.17v2.35h-17.63v12.04h16.78v2.35Z"/>
        <path class="cls-2" d="M93.47,124.57l-9.12-32.91h2.63c2.21,7.9,7.19,26.09,7.95,29.95h.05c.61-3.06,6.02-21.25,8.32-29.95h2.82c2.16,8.04,7.43,27.36,7.94,29.9h.05c1.03-4.65,6.53-22.05,8.79-29.9h2.59l-10.06,32.91h-2.91c-2.16-7.76-7.29-26.8-7.85-29.62h-.05c-.85,4.28-5.92,21.44-8.27,29.62h-2.87Z"/>
        <path class="cls-2" d="M131.46,115.73c.99,4.37,3.9,6.96,9.31,6.96,6.02,0,8.32-3.01,8.32-6.58s-1.65-6.02-8.89-7.8c-6.96-1.74-9.97-4-9.97-8.74,0-4.33,3.15-8.37,10.2-8.37s10.3,4.42,10.72,8.42h-2.63c-.75-3.53-3.06-6.06-8.23-6.06-4.75,0-7.33,2.21-7.33,5.88s2.16,5.03,8.23,6.53c9.26,2.3,10.62,6.02,10.62,9.97,0,4.84-3.53,9.03-11.14,9.03-8.23,0-11.24-4.79-11.85-9.21h2.63Z"/>
      </g>
      <g>
        <circle class="cls-2" cx="216.06" cy="62.22" r="47.51"/>
        <g>
          <path class="cls-4" d="M254.32,62.23c0,9.57-3.49,18.33-9.29,25.06-7.06,8.22-17.52,13.42-29.21,13.42s-22.15-5.19-29.19-13.42c-5.8-6.73-9.29-15.49-9.29-25.06,0-10.53,4.22-20.08,11.06-27.02,6.97-7.08,16.68-11.48,27.42-11.48s20.45,4.4,27.44,11.48c6.85,6.94,11.06,16.49,11.06,27.02Z"/>
          <path class="cls-4" d="M243.26,35.21c-3.54,1.79-7.41,3.24-11.51,4.29-5.01,1.3-10.37,2-15.93,2s-10.9-.7-15.91-1.98c-4.1-1.05-7.97-2.52-11.51-4.31,6.97-7.08,16.68-11.48,27.42-11.48s20.45,4.4,27.44,11.48Z"/>
          <path class="cls-4" d="M245.03,87.29c-7.06,8.22-17.52,13.42-29.21,13.42s-22.15-5.19-29.19-13.42c3.77-2.07,7.94-3.77,12.39-4.98,5.24-1.42,10.9-2.21,16.8-2.21s11.55.79,16.82,2.21c4.45,1.21,8.62,2.91,12.39,4.98Z"/>
          <ellipse class="cls-4" cx="215.82" cy="62.22" rx="19.72" ry="38.5"/>
          <polyline class="cls-4" points="177.33 62.23 196.11 62.23 215.82 62.23 235.55 62.23 254.32 62.23"/>
          <polyline class="cls-4" points="215.82 100.71 215.82 80.09 215.82 62.23 215.82 41.5 215.82 23.72"/>
        </g>
      </g>
    </g>
  </g>
</svg>