<?xml version="1.0" encoding="UTF-8"?>
<svg id="Layer_2" data-name="Layer 2" xmlns="http://www.w3.org/2000/svg" viewBox="0 0 207.33 32.48">
  <defs>
    <style>
      .cls-1 {
        fill: #fff;
      }
    </style>
  </defs>
  <g id="Layer_1-2" data-name="Layer 1">
    <g>
      <g>
        <path class="cls-1" d="M14.7,0c2.36,0,4.45.42,6.28,1.27,1.83.85,3.37,2.01,4.63,3.49,1.25,1.48,2.21,3.21,2.86,5.17s.98,4.07.98,6.31-.33,4.35-.98,6.33c-.65,1.98-1.6,3.71-2.86,5.17-1.25,1.47-2.8,2.62-4.63,3.47-1.83.85-3.92,1.27-6.28,1.27s-4.45-.42-6.26-1.27c-1.81-.85-3.35-2-4.61-3.47-1.25-1.47-2.21-3.19-2.86-5.17-.65-1.98-.98-4.09-.98-6.33s.32-4.35.98-6.33c.65-1.98,1.6-3.7,2.86-5.17,1.25-1.47,2.79-2.62,4.61-3.47,1.81-.85,3.9-1.27,6.26-1.27ZM14.7,23.41c.91,0,1.69-.19,2.36-.57.67-.38,1.22-.89,1.66-1.54.44-.65.75-1.41.95-2.27.2-.86.29-1.79.29-2.79s-.1-1.93-.29-2.79c-.2-.86-.51-1.62-.95-2.27-.44-.65-.99-1.16-1.66-1.54-.67-.38-1.45-.57-2.36-.57s-1.69.19-2.36.57-1.21.89-1.63,1.54c-.42.65-.74,1.41-.95,2.27-.21.86-.32,1.79-.32,2.79s.11,1.93.32,2.79c.21.86.53,1.62.95,2.27.42.65.97,1.17,1.63,1.54.67.38,1.45.57,2.36.57Z"/>
        <path class="cls-1" d="M46.55.41c2,0,3.66.51,4.99,1.52,1.33,1.01,2.33,2.28,2.99,3.79.67,1.51,1,3.15,1,4.92s-.33,3.41-1,4.92c-.67,1.51-1.66,2.78-2.99,3.79-1.33,1.01-2.99,1.52-4.99,1.52h-5.9v11.3h-9.44V.41h15.33ZM43.69,13.25c.85,0,1.48-.29,1.91-.88.42-.59.63-1.23.63-1.93s-.21-1.34-.63-1.93c-.42-.59-1.06-.88-1.91-.88h-3.04v5.63h3.04Z"/>
        <path class="cls-1" d="M65.83,9.57c0,.45.26.93.79,1.43.53.5,1.19,1.04,1.97,1.61.79.57,1.64,1.2,2.56,1.88.92.68,1.78,1.44,2.56,2.27.79.83,1.44,1.75,1.97,2.77s.79,2.12.79,3.33c0,1.27-.2,2.49-.61,3.65-.41,1.17-1.06,2.19-1.95,3.08s-2.04,1.6-3.43,2.11c-1.39.51-3.07.77-5.04.77-1.66,0-3.15-.12-4.45-.36-1.3-.24-2.4-.51-3.29-.79-.89-.29-1.58-.56-2.06-.82-.48-.26-.76-.4-.82-.43l2.59-8.48c.24.18.58.42,1.02.7.44.29.95.56,1.54.82s1.25.48,1.97.68c.73.2,1.5.29,2.31.29,1,0,1.7-.19,2.11-.57s.61-.78.61-1.2c0-.61-.27-1.17-.79-1.7-.53-.53-1.19-1.07-1.97-1.63-.79-.56-1.65-1.16-2.59-1.79-.94-.63-1.8-1.35-2.59-2.16-.79-.8-1.45-1.7-1.97-2.7-.53-1-.79-2.15-.79-3.45,0-2.75.94-4.92,2.81-6.51,1.88-1.59,4.55-2.38,8.03-2.38,1.36,0,2.59.1,3.7.29,1.1.2,2.05.42,2.83.66.94.3,1.78.63,2.54,1l-2,7.94c-.64-.3-1.3-.57-2-.82-.6-.18-1.28-.36-2.02-.52s-1.5-.25-2.29-.25c-.85,0-1.41.15-1.68.45-.27.3-.41.58-.41.82Z"/>
      </g>
      <g>
        <path class="cls-1" d="M114.43,28.6V4.51h2.75c3.75,5.78,12.57,19.24,14.08,21.86h.03c-.21-3.48-.17-7.02-.17-10.95V4.51h1.89v24.1h-2.55c-3.58-5.58-12.53-19.59-14.25-22.24h-.04c.17,3.17.14,6.68.14,11.05v11.19h-1.89Z"/>
        <path class="cls-1" d="M154.26,16.76h-12.29v10.12h13.46l-.28,1.72h-15.04V4.51h14.77v1.72h-12.91v8.81h12.29v1.72Z"/>
        <path class="cls-1" d="M164.62,28.6l-6.68-24.1h1.93c1.62,5.78,5.27,19.11,5.82,21.93h.03c.45-2.24,4.41-15.56,6.09-21.93h2.07c1.58,5.89,5.44,20.03,5.82,21.89h.03c.76-3.41,4.78-16.14,6.44-21.89h1.89l-7.37,24.1h-2.13c-1.58-5.68-5.34-19.62-5.75-21.69h-.04c-.62,3.13-4.34,15.7-6.06,21.69h-2.1Z"/>
        <path class="cls-1" d="M192.43,22.13c.72,3.2,2.86,5.09,6.82,5.09,4.41,0,6.09-2.2,6.09-4.82s-1.21-4.41-6.51-5.71c-5.09-1.27-7.3-2.93-7.3-6.4,0-3.17,2.31-6.13,7.47-6.13s7.54,3.24,7.85,6.16h-1.93c-.55-2.58-2.24-4.44-6.02-4.44-3.48,0-5.37,1.62-5.37,4.3s1.58,3.68,6.02,4.79c6.78,1.69,7.78,4.41,7.78,7.3,0,3.55-2.58,6.61-8.16,6.61-6.02,0-8.23-3.51-8.67-6.75h1.93Z"/>
      </g>
      <g>
        <path class="cls-1" d="M93.37,30.12c-3.7,0-7.2-1.61-9.59-4.41-1.97-2.29-3.05-5.21-3.05-8.24,0-3.35,1.29-6.5,3.64-8.88,2.39-2.43,5.59-3.77,9.01-3.77s6.62,1.34,9.02,3.77c2.35,2.38,3.64,5.53,3.64,8.88,0,3.03-1.08,5.95-3.06,8.24-2.41,2.8-5.91,4.41-9.6,4.41ZM93.37,5.56c-3.21,0-6.23,1.26-8.48,3.55-2.21,2.24-3.42,5.2-3.42,8.36,0,2.85,1.02,5.6,2.87,7.75,2.26,2.64,5.55,4.15,9.03,4.15s6.77-1.51,9.03-4.15c1.85-2.15,2.87-4.9,2.87-7.75,0-3.15-1.21-6.12-3.42-8.35-2.26-2.29-5.27-3.55-8.49-3.55Z"/>
        <path class="cls-1" d="M93.37,11.23c-1.76,0-3.5-.22-5.17-.64-1.3-.33-2.56-.8-3.75-1.4l-.46-.23.36-.37c2.39-2.43,5.6-3.78,9.01-3.78s6.62,1.34,9.02,3.77l.36.37-.46.23c-1.16.59-2.42,1.06-3.75,1.39-1.66.43-3.4.65-5.17.65ZM85.27,8.75c1,.46,2.04.84,3.12,1.11,3.23.83,6.79.82,9.97,0,1.09-.28,2.14-.65,3.12-1.11-2.21-2.06-5.07-3.18-8.11-3.18s-5.9,1.13-8.1,3.18Z"/>
        <path class="cls-1" d="M93.37,30.12c-3.7,0-7.2-1.61-9.59-4.41l-.3-.35.4-.22c1.26-.69,2.62-1.24,4.03-1.62,3.52-.95,7.38-.95,10.92,0,1.42.39,2.78.93,4.04,1.62l.4.22-.3.35c-2.41,2.8-5.91,4.41-9.6,4.41ZM84.66,25.57c2.24,2.42,5.39,3.8,8.71,3.8s6.47-1.38,8.72-3.8c-1.09-.56-2.25-1.01-3.45-1.33-3.41-.92-7.13-.92-10.53,0-1.21.33-2.37.78-3.45,1.33Z"/>
        <path class="cls-1" d="M93.38,30.12c-3.74,0-6.67-5.56-6.67-12.65s2.93-12.65,6.67-12.65,6.67,5.56,6.67,12.65-2.93,12.65-6.67,12.65ZM93.38,5.56c-3.26,0-5.92,5.34-5.92,11.9s2.65,11.9,5.92,11.9,5.92-5.34,5.92-11.9-2.65-11.9-5.92-11.9Z"/>
        <rect class="cls-1" x="81.1" y="17.1" width="24.56" height=".75"/>
        <rect class="cls-1" x="93" y="5.19" width=".75" height="24.55"/>
      </g>
    </g>
  </g>
</svg>